<?xml version="1.0" encoding="utf-8"?>
<!-- Generator: Adobe Illustrator 27.5.0, SVG Export Plug-In . SVG Version: 6.00 Build 0)  -->
<svg version="1.1" xmlns="http://www.w3.org/2000/svg" xmlns:xlink="http://www.w3.org/1999/xlink" x="0px" y="0px"
	 viewBox="0 0 500 500" style="enable-background:new 0 0 500 500;" xml:space="preserve">
<g id="BACKGROUND">
	<rect id="XMLID_3_" style="fill:#2D2C33;" width="500" height="500"/>
</g>
<g id="OBJECTS">
	<g id="XMLID_20_">
		<g id="XMLID_1_">
			<path id="XMLID_98_" style="fill:#FFFFFF;" d="M51.722,134.925c0.065,0.941-0.106,1.9-0.472,2.782
				c-0.37,0.883-1.003,1.66-1.793,2.223c-0.782,0.599-1.739,0.874-2.677,1.096c-0.476,0.079-0.958,0.112-1.439,0.169
				c-0.48,0.009-0.961-0.007-1.443-0.011c-0.482-0.005-0.953-0.095-1.431-0.139l-0.736-0.089l-0.69-0.153
				c-0.942-0.255-1.908-0.646-2.698-1.241c-0.807-0.583-1.514-1.304-2.088-2.12c-0.557-0.826-0.989-1.732-1.296-2.68
				c-0.308-0.949-0.452-1.943-0.49-2.941c-0.042-1,0.084-2.009,0.345-2.987c0.259-0.977,0.666-1.934,1.262-2.78
				c0.594-0.84,1.322-1.613,2.2-2.181c0.873-0.555,1.827-1.022,2.833-1.239c0.495-0.159,1.006-0.182,1.51-0.276
				c0.504-0.027,1.014-0.07,1.516-0.059c1.006,0.026,2.001,0.143,2.971,0.342c0.974,0.192,1.912,0.48,2.848,0.777l0.025,0.008
				l0.071,0.033c7.395,3.406,14.908,6.64,22.534,9.445c3.81,1.395,7.661,2.705,11.542,3.647l1.454,0.348l1.449,0.246
				c0.976,0.21,1.906,0.228,2.842,0.298l0.176,0.012l0.088,0.006c-0.212,0.008-0.031,0-0.066,0.001l0.048-0.004l0.382-0.033
				l0.764-0.066c0.244-0.028,0.532-0.029,0.741-0.08l0.583-0.17l0.585-0.152c0.196-0.053,0.386-0.177,0.58-0.26
				c0.384-0.187,0.793-0.332,1.116-0.615c1.411-0.942,2.44-2.423,3.028-4.118c0.592-1.696,0.773-3.582,0.611-5.433
				c-0.156-1.854-0.69-3.685-1.546-5.288c-0.197-0.412-0.479-0.763-0.709-1.15l-0.09-0.142l-0.045-0.071
				c0.151,0.189,0.024,0.032,0.049,0.064l-0.032-0.036l-0.254-0.288l-0.507-0.575c-0.177-0.231-0.319-0.281-0.468-0.404
				c-0.147-0.11-0.29-0.224-0.432-0.342c-0.334-0.201-0.71-0.402-1.071-0.578c-1.502-0.59-3.275-0.584-4.617,0.174
				c-1.325,0.764-2.153,2.127-2.06,3.765c0.007,0.806,0.218,1.655,0.528,2.483l0.501,1.159l0.8,1.309
				c0.13,0.238,0.271,0.411,0.412,0.568l0.415,0.502l0.412,0.507l0.506,0.479c0.638,0.677,1.413,1.212,2.159,1.78
				c1.583,1.027,3.332,1.817,5.16,2.41c1.84,0.569,3.76,0.893,5.693,1.046c3.859,0.217,7.846-0.305,11.227-2.06
				c3.374-1.699,6.177-4.619,7.219-8.21c0.529-1.779,0.623-3.685,0.261-5.519l-0.356-1.358c-0.175-0.436-0.328-0.881-0.516-1.313
				c-0.212-0.398-0.446-0.886-0.635-1.215c-0.137-0.196-0.289-0.467-0.414-0.601c-0.136-0.145-0.226-0.303-0.396-0.448
				c-1.183-1.232-2.998-1.792-4.758-1.503c-1.752,0.258-3.41,1.326-4.237,2.883c-0.857,1.556-0.806,3.517-0.165,5.302
				c0.287,0.893,0.784,1.799,1.258,2.572c0.592,0.828,1.149,1.727,1.828,2.377c0.608,0.745,1.41,1.341,2.17,1.961l1.249,0.789
				c0.422,0.255,0.889,0.429,1.332,0.649c1.821,0.78,3.804,1.193,5.813,1.308c4.035,0.211,8.099-0.661,11.971-1.943
				c-3.787,1.507-7.819,2.665-11.992,2.611c-4.122-0.025-8.462-1.404-11.445-4.559c-0.824-0.752-1.38-1.584-2.016-2.39
				c-0.64-0.935-1.168-1.819-1.567-2.857c-0.805-2.002-1.012-4.482,0.061-6.599c1.04-2.108,3.151-3.554,5.418-3.968
				c1.138-0.208,2.334-0.187,3.476,0.13c1.139,0.319,2.214,0.927,3.066,1.76c0.222,0.187,0.422,0.458,0.628,0.692
				c0.214,0.25,0.31,0.432,0.471,0.651c0.34,0.545,0.549,0.982,0.827,1.481c0.233,0.499,0.428,1.017,0.641,1.527
				c0.161,0.529,0.318,1.062,0.459,1.598c0.484,2.17,0.429,4.468-0.157,6.621c-0.58,2.157-1.681,4.158-3.129,5.834
				c-0.341,0.441-0.751,0.812-1.146,1.199c-0.384,0.401-0.827,0.729-1.257,1.073c-0.416,0.355-0.893,0.662-1.374,0.966l-0.716,0.457
				l-0.679,0.356c-3.892,2.073-8.312,2.696-12.583,2.517c-2.145-0.137-4.283-0.467-6.364-1.08c-2.071-0.643-4.076-1.542-5.934-2.738
				c-0.891-0.659-1.8-1.294-2.58-2.102l-0.607-0.577l-0.563-0.677l-0.555-0.686c-0.193-0.232-0.367-0.46-0.484-0.673l-0.806-1.305
				l-0.099-0.171l-0.044-0.098l-0.087-0.196l-0.174-0.392l-0.344-0.786c-0.407-1.075-0.714-2.237-0.736-3.48l-0.026-0.459
				l0.057-0.472l0.132-0.943c0.039-0.314,0.193-0.615,0.291-0.922c0.129-0.298,0.194-0.624,0.386-0.892
				c0.349-0.554,0.682-1.125,1.179-1.554c0.437-0.496,0.987-0.832,1.531-1.176c2.242-1.266,4.96-1.258,7.228-0.334
				c0.556,0.262,1.09,0.549,1.618,0.885l0.766,0.616c0.241,0.206,0.538,0.433,0.67,0.616l0.505,0.578l0.252,0.289l0.144,0.173
				l0.058,0.09l0.117,0.181c0.297,0.487,0.646,0.954,0.892,1.463c1.058,2.011,1.67,4.197,1.853,6.419
				c0.182,2.219-0.03,4.495-0.794,6.66c-0.752,2.151-2.155,4.212-4.161,5.537c-0.47,0.38-1.024,0.603-1.566,0.85
				c-0.277,0.114-0.531,0.261-0.827,0.344l-0.901,0.227l-0.904,0.209c-0.29,0.055-0.52,0.047-0.783,0.073l-0.765,0.055l-0.382,0.027
				l-0.21,0.011l-0.104-0.008l-0.207-0.016c-1.103-0.085-2.222-0.143-3.249-0.378l-1.572-0.291l-1.524-0.386
				c-4.056-1.046-7.945-2.435-11.794-3.905c-3.841-1.489-7.611-3.123-11.359-4.799c-3.743-1.692-7.46-3.411-11.134-5.267
				l0.096,0.041c-0.853-0.299-1.707-0.593-2.58-0.794c-0.87-0.208-1.75-0.338-2.627-0.39c-0.438-0.024-0.872,0.002-1.308,0.008
				c-0.423,0.071-0.867,0.069-1.276,0.192c-0.85,0.15-1.625,0.513-2.352,0.936c-0.727,0.434-1.331,1.043-1.846,1.718
				c-0.523,0.674-0.904,1.464-1.164,2.294c-0.261,0.83-0.416,1.708-0.416,2.593c-0.005,0.883,0.082,1.777,0.319,2.635
				c0.237,0.857,0.586,1.683,1.049,2.444c0.479,0.749,1.079,1.417,1.775,1.97c0.7,0.573,1.501,0.937,2.356,1.216l0.683,0.184
				l0.664,0.107c0.458,0.062,0.915,0.172,1.375,0.196l1.383,0.072c0.456-0.035,0.919-0.046,1.374-0.1
				c0.889-0.176,1.812-0.365,2.571-0.886c0.771-0.483,1.417-1.179,1.827-2.014C51.502,136.805,51.731,135.868,51.722,134.925z"/>
		</g>
		<g id="XMLID_5_">
			<path id="XMLID_93_" style="fill:#FFFFFF;" d="M198.793,134.925c-0.009,0.942,0.22,1.88,0.626,2.712
				c0.411,0.834,1.056,1.53,1.828,2.014c0.76,0.521,1.682,0.711,2.571,0.886c0.455,0.054,0.918,0.064,1.374,0.1l1.383-0.072
				c0.46-0.024,0.917-0.134,1.374-0.196l0.664-0.107l0.683-0.184c0.855-0.279,1.656-0.643,2.356-1.216
				c0.696-0.553,1.295-1.221,1.775-1.97c0.464-0.76,0.813-1.586,1.049-2.444c0.238-0.859,0.324-1.753,0.319-2.635
				c0-0.885-0.155-1.764-0.416-2.593c-0.26-0.83-0.641-1.62-1.164-2.294c-0.515-0.674-1.119-1.284-1.846-1.718
				c-0.727-0.422-1.502-0.785-2.352-0.936c-0.409-0.123-0.853-0.121-1.276-0.192c-0.436-0.006-0.87-0.031-1.308-0.008
				c-0.878,0.052-1.757,0.183-2.627,0.39c-0.873,0.201-1.727,0.494-2.58,0.794l0.096-0.041c-3.674,1.856-7.391,3.575-11.134,5.267
				c-3.748,1.676-7.518,3.31-11.359,4.799c-3.849,1.469-7.738,2.858-11.794,3.905l-1.524,0.386l-1.572,0.291
				c-1.027,0.234-2.146,0.293-3.249,0.378l-0.207,0.016l-0.103,0.008l-0.21-0.011l-0.382-0.027l-0.765-0.055
				c-0.263-0.026-0.493-0.018-0.783-0.073l-0.904-0.209l-0.901-0.227c-0.296-0.083-0.55-0.229-0.827-0.344
				c-0.542-0.246-1.096-0.47-1.566-0.85c-2.007-1.325-3.41-3.386-4.161-5.537c-0.764-2.165-0.975-4.441-0.794-6.66
				c0.182-2.222,0.794-4.408,1.853-6.419c0.246-0.509,0.595-0.976,0.893-1.463l0.117-0.181l0.058-0.09l0.144-0.173l0.252-0.289
				l0.505-0.578c0.132-0.183,0.429-0.41,0.67-0.616l0.766-0.616c0.529-0.336,1.062-0.623,1.618-0.885
				c2.268-0.923,4.986-0.932,7.228,0.334c0.544,0.344,1.094,0.68,1.531,1.176c0.497,0.429,0.83,1.001,1.179,1.554
				c0.193,0.268,0.258,0.594,0.386,0.892c0.098,0.307,0.252,0.608,0.291,0.922l0.132,0.943l0.057,0.472l-0.026,0.459
				c-0.022,1.243-0.329,2.405-0.736,3.48l-0.343,0.786l-0.174,0.392l-0.087,0.196l-0.044,0.098l-0.099,0.171l-0.806,1.305
				c-0.117,0.213-0.291,0.441-0.484,0.673l-0.555,0.686l-0.563,0.677l-0.607,0.577c-0.781,0.808-1.69,1.443-2.58,2.102
				c-1.858,1.195-3.863,2.094-5.934,2.738c-2.081,0.612-4.219,0.942-6.364,1.08c-4.271,0.179-8.691-0.444-12.583-2.517l-0.679-0.356
				l-0.716-0.457c-0.48-0.304-0.958-0.612-1.374-0.966c-0.431-0.344-0.873-0.672-1.257-1.073c-0.396-0.386-0.806-0.758-1.146-1.199
				c-1.448-1.676-2.549-3.677-3.129-5.834c-0.586-2.153-0.641-4.451-0.157-6.621c0.141-0.536,0.297-1.069,0.459-1.598
				c0.213-0.51,0.408-1.028,0.641-1.527c0.278-0.499,0.487-0.936,0.827-1.481c0.161-0.219,0.257-0.401,0.471-0.651
				c0.206-0.234,0.406-0.504,0.628-0.692c0.853-0.833,1.928-1.441,3.066-1.76c1.142-0.317,2.338-0.338,3.476-0.13
				c2.267,0.413,4.377,1.86,5.418,3.968c1.072,2.116,0.865,4.597,0.061,6.599c-0.399,1.038-0.927,1.922-1.567,2.857
				c-0.636,0.806-1.191,1.638-2.016,2.39c-2.983,3.154-7.324,4.533-11.445,4.559c-4.173,0.054-8.205-1.104-11.992-2.611
				c3.872,1.282,7.936,2.154,11.971,1.943c2.009-0.115,3.993-0.528,5.813-1.308c0.443-0.22,0.91-0.394,1.332-0.649l1.249-0.789
				c0.76-0.62,1.562-1.216,2.17-1.961c0.679-0.651,1.236-1.549,1.828-2.377c0.474-0.773,0.971-1.679,1.258-2.572
				c0.641-1.785,0.692-3.746-0.165-5.302c-0.827-1.557-2.485-2.624-4.237-2.883c-1.76-0.289-3.575,0.271-4.758,1.503
				c-0.169,0.145-0.259,0.303-0.396,0.448c-0.125,0.133-0.277,0.405-0.414,0.601c-0.188,0.329-0.423,0.817-0.634,1.215
				c-0.188,0.432-0.341,0.877-0.516,1.313l-0.355,1.358c-0.362,1.835-0.268,3.74,0.261,5.519c1.043,3.591,3.846,6.511,7.219,8.21
				c3.381,1.755,7.368,2.277,11.227,2.06c1.933-0.153,3.853-0.477,5.693-1.046c1.828-0.593,3.577-1.382,5.16-2.41
				c0.746-0.568,1.521-1.103,2.159-1.78l0.506-0.479l0.412-0.507l0.416-0.502c0.141-0.157,0.282-0.33,0.412-0.568l0.8-1.309
				l0.501-1.159c0.31-0.828,0.521-1.678,0.528-2.483c0.094-1.638-0.734-3.002-2.06-3.765c-1.342-0.759-3.116-0.765-4.617-0.174
				c-0.361,0.176-0.737,0.378-1.071,0.578c-0.141,0.119-0.284,0.232-0.432,0.342c-0.149,0.123-0.292,0.173-0.469,0.404l-0.507,0.575
				l-0.254,0.288l-0.032,0.036c0.026-0.033-0.102,0.124,0.049-0.064l-0.045,0.071l-0.09,0.142c-0.23,0.387-0.511,0.738-0.709,1.15
				c-0.856,1.603-1.389,3.434-1.546,5.288c-0.161,1.851,0.019,3.737,0.611,5.433c0.588,1.695,1.616,3.176,3.028,4.118
				c0.323,0.283,0.732,0.428,1.116,0.615c0.194,0.082,0.384,0.207,0.58,0.26l0.585,0.152l0.583,0.17
				c0.209,0.051,0.497,0.052,0.741,0.08l0.764,0.066l0.382,0.033l0.048,0.004c-0.035-0.001,0.146,0.008-0.066-0.001l0.088-0.006
				l0.176-0.012c0.937-0.069,1.866-0.088,2.842-0.298l1.449-0.246l1.454-0.348c3.881-0.942,7.732-2.252,11.542-3.647
				c7.625-2.805,15.139-6.038,22.534-9.445l0.071-0.033l0.025-0.008c0.936-0.297,1.875-0.585,2.849-0.777
				c0.97-0.198,1.965-0.316,2.971-0.342c0.503-0.011,1.012,0.032,1.516,0.059c0.504,0.094,1.015,0.117,1.51,0.276
				c1.006,0.217,1.96,0.684,2.833,1.239c0.878,0.567,1.605,1.341,2.2,2.181c0.596,0.846,1.003,1.803,1.262,2.78
				c0.261,0.978,0.387,1.987,0.345,2.987c-0.038,0.998-0.183,1.993-0.49,2.941c-0.307,0.947-0.738,1.853-1.296,2.68
				c-0.574,0.816-1.281,1.537-2.088,2.12c-0.79,0.595-1.755,0.986-2.698,1.241l-0.69,0.153l-0.736,0.089
				c-0.478,0.044-0.949,0.134-1.431,0.139c-0.482,0.003-0.963,0.019-1.443,0.011c-0.481-0.057-0.963-0.09-1.439-0.169
				c-0.939-0.222-1.896-0.497-2.677-1.096c-0.79-0.563-1.423-1.34-1.793-2.223C198.899,136.826,198.728,135.867,198.793,134.925z"/>
		</g>
	</g>
	<g id="XMLID_19_">
		<g id="XMLID_7_">
			<g id="XMLID_6_">
				<path id="XMLID_113_" style="fill:#FFFFFF;" d="M341.309,110.463c0,0-0.175-0.663-0.833-1.73
					c-0.33-0.528-0.802-1.148-1.484-1.719c-0.686-0.559-1.606-1.048-2.717-1.192c-1.109-0.158-2.369,0.071-3.64,0.565
					c-0.65,0.266-1.267,0.548-1.813,1.003c-0.557,0.441-1.059,0.998-1.485,1.636c-1.71,2.554-2.245,6.394-0.967,9.93
					c0.642,1.765,1.766,3.417,3.273,4.76c1.51,1.342,3.375,2.396,5.446,3.112c2.069,0.725,4.325,1.14,6.658,1.324
					c2.31,0.168,4.813,0.191,7.135-0.108c2.339-0.314,4.734-0.99,6.429-2.35c0.828-0.677,1.428-1.518,1.602-2.403
					c0.191-0.879-0.019-1.821-0.581-2.676c-1.137-1.738-3.421-2.88-5.777-3.404c-2.392-0.537-4.962-0.53-7.491-0.205
					c-5.089,0.649-10.048,2.559-14.624,4.947c-2.306,1.195-4.469,2.537-6.697,3.915c-2.237,1.365-4.456,2.666-6.672,3.909
					c-4.421,2.496-8.83,4.682-13.118,6.527c-4.284,1.85-8.477,3.312-12.472,4.247c-3.982,0.938-7.823,1.336-11.186,0.735
					c-1.672-0.296-3.214-0.884-4.424-1.766c-1.218-0.874-2.05-2.023-2.538-3.136c-0.484-1.122-0.684-2.193-0.746-3.118
					c-0.07-0.926-0.033-1.711,0.024-2.342c0.054-0.631,0.125-1.111,0.18-1.432c0.054-0.321,0.082-0.487,0.082-0.487
					s-0.014,0.168-0.041,0.492c-0.028,0.324-0.059,0.807-0.06,1.434c0.003,1.236,0.078,3.151,1.084,5.203
					c0.52,1.005,1.336,1.989,2.477,2.706c1.135,0.723,2.562,1.173,4.128,1.35c3.148,0.36,6.783-0.241,10.593-1.297
					c7.643-2.19,16.081-6.339,24.707-11.4c2.157-1.266,4.335-2.601,6.501-3.981c2.155-1.397,4.432-2.873,6.827-4.118
					c4.773-2.525,9.992-4.606,15.595-5.364c2.796-0.342,5.688-0.347,8.53,0.306c1.415,0.337,2.82,0.824,4.129,1.579
					c1.305,0.743,2.535,1.758,3.422,3.128c0.891,1.347,1.347,3.166,0.949,4.862c-0.383,1.702-1.478,3.045-2.666,3.972
					c-1.206,0.935-2.536,1.532-3.861,1.959c-1.329,0.427-2.666,0.679-3.985,0.827c-0.659,0.068-1.315,0.123-1.985,0.148
					c-0.68,0.027-1.223,0.036-1.921,0.025c-1.273-0.01-2.538-0.083-3.785-0.228c-2.493-0.279-4.931-0.805-7.2-1.684
					c-2.265-0.872-4.364-2.117-6.039-3.745c-1.67-1.628-2.889-3.612-3.533-5.672c-1.302-4.142-0.419-8.374,1.691-11.134
					c0.527-0.692,1.14-1.293,1.814-1.761c0.327-0.235,0.699-0.44,1.056-0.606c0.326-0.152,0.725-0.281,1.053-0.4
					c1.396-0.446,2.794-0.614,4.013-0.362c1.223,0.232,2.194,0.844,2.861,1.501c0.669,0.664,1.095,1.34,1.386,1.905
					C341.192,109.79,341.309,110.463,341.309,110.463z"/>
			</g>
			<g id="XMLID_8_">
				<path id="XMLID_96_" style="fill:#FFFFFF;" d="M294.553,119.457c0,0-0.138,0.381-0.321,1.062
					c-0.185,0.68-0.407,1.664-0.55,2.853c-0.128,1.184-0.195,2.594,0.097,4.011c0.138,0.706,0.36,1.414,0.712,2.048
					c0.35,0.631,0.778,1.223,1.343,1.662c0.553,0.446,1.17,0.81,1.848,1.034c0.659,0.255,1.368,0.385,2.056,0.47
					c0.338,0.061,0.691,0.057,1.028,0.077c0.335,0.025,0.668,0.024,0.997,0.005c0.649-0.004,1.269-0.07,1.841-0.135
					c0.568-0.041,1.097-0.168,1.559-0.232c0.463-0.066,0.867-0.167,1.199-0.239c0.663-0.147,1.042-0.23,1.042-0.23l0.543,2.951
					c0,0-0.418,0.043-1.15,0.118c-0.366,0.036-0.806,0.092-1.324,0.107c-0.518,0.013-1.088,0.079-1.731,0.054
					c-0.638-0.003-1.328-0.011-2.066-0.09c-0.366-0.023-0.744-0.065-1.131-0.138c-0.386-0.068-0.779-0.111-1.178-0.229
					c-0.795-0.194-1.618-0.447-2.402-0.858c-0.794-0.374-1.537-0.928-2.164-1.576c-0.643-0.641-1.096-1.445-1.419-2.242
					c-0.328-0.804-0.481-1.635-0.543-2.425c-0.135-1.587,0.112-3.028,0.382-4.222c0.287-1.194,0.625-2.154,0.889-2.813
					C294.372,119.819,294.553,119.457,294.553,119.457z"/>
			</g>
		</g>
		<g id="XMLID_10_">
			<g id="XMLID_22_">
				<path id="XMLID_90_" style="fill:#FFFFFF;" d="M384.377,110.463c0,0,0.116-0.673,0.692-1.811
					c0.291-0.565,0.717-1.241,1.386-1.905c0.667-0.657,1.638-1.269,2.861-1.501c1.22-0.252,2.617-0.084,4.014,0.362
					c0.328,0.119,0.727,0.247,1.053,0.4c0.357,0.166,0.729,0.37,1.056,0.606c0.675,0.468,1.287,1.069,1.814,1.761
					c2.11,2.761,2.992,6.993,1.691,11.134c-0.644,2.06-1.863,4.045-3.533,5.672c-1.675,1.628-3.774,2.873-6.039,3.745
					c-2.269,0.879-4.707,1.404-7.2,1.684c-1.247,0.144-2.512,0.217-3.785,0.228c-0.698,0.011-1.241,0.002-1.921-0.025
					c-0.67-0.025-1.326-0.08-1.985-0.148c-1.319-0.148-2.657-0.4-3.985-0.827c-1.325-0.427-2.655-1.024-3.861-1.959
					c-1.187-0.927-2.283-2.27-2.666-3.972c-0.398-1.696,0.058-3.516,0.949-4.862c0.888-1.37,2.117-2.385,3.422-3.128
					c1.309-0.756,2.714-1.242,4.129-1.579c2.842-0.654,5.734-0.648,8.53-0.306c5.602,0.757,10.822,2.838,15.595,5.364
					c2.395,1.245,4.673,2.72,6.827,4.118c2.166,1.381,4.344,2.716,6.501,3.981c8.626,5.061,17.064,9.21,24.707,11.4
					c3.81,1.056,7.445,1.657,10.593,1.297c1.566-0.177,2.993-0.627,4.128-1.35c1.141-0.716,1.957-1.7,2.477-2.706
					c1.006-2.052,1.081-3.967,1.084-5.203c-0.001-0.628-0.031-1.111-0.06-1.434c-0.027-0.325-0.041-0.492-0.041-0.492
					s0.028,0.166,0.082,0.487c0.056,0.321,0.126,0.801,0.18,1.432c0.057,0.631,0.094,1.416,0.025,2.342
					c-0.062,0.924-0.263,1.996-0.746,3.118c-0.489,1.113-1.32,2.262-2.538,3.136c-1.211,0.882-2.753,1.47-4.424,1.766
					c-3.363,0.601-7.204,0.203-11.186-0.735c-3.995-0.935-8.188-2.397-12.472-4.247c-4.288-1.845-8.697-4.031-13.118-6.527
					c-2.216-1.243-4.436-2.544-6.672-3.909c-2.228-1.378-4.39-2.72-6.697-3.915c-4.575-2.388-9.534-4.299-14.624-4.947
					c-2.53-0.325-5.099-0.332-7.491,0.205c-2.356,0.524-4.641,1.666-5.777,3.404c-0.562,0.854-0.772,1.797-0.581,2.676
					c0.173,0.886,0.773,1.727,1.602,2.403c1.695,1.359,4.09,2.035,6.429,2.35c2.322,0.298,4.825,0.276,7.135,0.108
					c2.333-0.184,4.59-0.599,6.658-1.324c2.071-0.715,3.936-1.77,5.446-3.112c1.507-1.343,2.63-2.995,3.273-4.76
					c1.278-3.536,0.743-7.376-0.967-9.93c-0.426-0.639-0.928-1.196-1.485-1.636c-0.546-0.454-1.163-0.736-1.813-1.003
					c-1.271-0.495-2.53-0.724-3.64-0.565c-1.111,0.144-2.031,0.633-2.716,1.192c-0.682,0.571-1.154,1.191-1.484,1.719
					C384.552,109.799,384.377,110.463,384.377,110.463z"/>
			</g>
			<g id="XMLID_11_">
				<path id="XMLID_65_" style="fill:#FFFFFF;" d="M431.133,119.457c0,0,0.18,0.366,0.442,1.031c0.263,0.665,0.6,1.632,0.887,2.835
					c0.271,1.202,0.516,2.652,0.393,4.248c-0.096,1.576-0.648,3.373-1.905,4.723c-0.611,0.674-1.358,1.234-2.15,1.63
					c-0.392,0.217-0.795,0.388-1.201,0.527c-0.403,0.168-0.81,0.262-1.211,0.368c-0.402,0.12-0.797,0.176-1.186,0.241
					c-0.39,0.073-0.771,0.125-1.14,0.147c-0.743,0.082-1.44,0.097-2.082,0.098c-0.649,0.026-1.224-0.037-1.745-0.051
					c-0.522-0.015-0.966-0.07-1.334-0.106c-0.738-0.076-1.159-0.119-1.159-0.119l0.543-2.95c0,0,0.381,0.084,1.049,0.231
					c0.334,0.073,0.741,0.173,1.207,0.239c0.465,0.066,0.997,0.189,1.569,0.229c0.576,0.066,1.199,0.125,1.852,0.128
					c0.331,0.02,0.664,0.012,1.002-0.012c0.34-0.017,0.692-0.024,1.032-0.087c0.345-0.049,0.703-0.087,1.04-0.187
					c0.35-0.074,0.693-0.174,1.021-0.311c0.674-0.242,1.298-0.609,1.838-1.078c1.1-0.926,1.766-2.351,2.02-3.78
					c0.282-1.432,0.217-2.852,0.087-4.045c-0.143-1.198-0.364-2.191-0.548-2.876C431.27,119.841,431.133,119.457,431.133,119.457z"
					/>
			</g>
		</g>
		<g id="XMLID_16_">
			<path id="XMLID_9_" style="fill:#FFFFFF;" d="M362.665,112.497l-5.59-11.186c-1.011-2.024-0.862-4.434,0.393-6.317l0.116-0.175
				c2.403-3.607,7.644-3.772,10.269-0.323l0,0c1.469,1.931,1.701,4.533,0.596,6.693L362.665,112.497z"/>
			<path id="XMLID_17_" style="fill:#FFFFFF;" d="M363.157,112.497l6.36-10.767c1.151-1.948,3.257-3.13,5.519-3.099l0.21,0.003
				c4.334,0.06,7.317,4.372,5.845,8.449l0,0c-0.824,2.282-2.883,3.889-5.297,4.134L363.157,112.497z"/>
			<path id="XMLID_23_" style="fill:#FFFFFF;" d="M362.217,112.497l-6.36-10.767c-1.151-1.948-3.256-3.13-5.519-3.099l-0.21,0.003
				c-4.334,0.06-7.317,4.372-5.845,8.449l0,0c0.824,2.282,2.884,3.889,5.297,4.134L362.217,112.497z"/>
		</g>
		<circle id="XMLID_24_" style="fill:#FFFFFF;" cx="299.309" cy="122.21" r="5.519"/>
		<circle id="XMLID_33_" style="fill:#FFFFFF;" cx="426.364" cy="122.21" r="5.519"/>
		<path id="XMLID_30_" style="fill:#FFFFFF;" d="M283.71,130.564c0,3.048-2.471,5.519-5.519,5.519c-3.048,0-5.519-2.471-5.519-5.519
			c0-3.048,2.471-5.519,5.519-5.519C281.239,125.045,283.71,127.516,283.71,130.564z"/>
		<circle id="XMLID_38_" style="fill:#FFFFFF;" cx="447.495" cy="130.564" r="5.519"/>
	</g>
	<g id="XMLID_18_">
		<g id="XMLID_13_">
			<path id="XMLID_63_" style="fill:#FFFFFF;" d="M259.843,222.135c0,0,3.219-0.07,8.852-0.194
				c5.633-0.081,13.68-0.276,23.336-0.367c9.656-0.082,20.922-0.267,32.992-0.305c12.07-0.042,24.945-0.088,37.82-0.133
				c12.875,0.045,25.75,0.09,37.82,0.131c12.07,0.033,23.336,0.223,32.992,0.305c9.656,0.089,17.703,0.288,23.336,0.368
				c5.633,0.124,8.852,0.195,8.852,0.195s-3.219,0.071-8.852,0.195c-5.633,0.081-13.68,0.279-23.336,0.368
				c-9.656,0.082-20.922,0.271-32.992,0.305c-12.07,0.042-24.945,0.087-37.82,0.131c-12.875-0.045-25.75-0.09-37.82-0.133
				c-12.07-0.038-23.336-0.223-32.992-0.305c-9.656-0.091-17.703-0.286-23.336-0.367
				C263.062,222.205,259.843,222.135,259.843,222.135z"/>
		</g>
		<g id="XMLID_14_">
			<g id="XMLID_12_">
				<path id="XMLID_116_" style="fill:#FFFFFF;" d="M326.913,222.135c0,0,0.208-0.247,0.628-0.695
					c0.428-0.437,1.067-1.071,1.958-1.797c0.459-0.342,0.955-0.745,1.525-1.143c0.584-0.373,1.202-0.813,1.912-1.193
					c1.409-0.777,3.062-1.602,4.995-2.155c0.483-0.144,0.975-0.291,1.478-0.441c0.516-0.098,1.041-0.197,1.575-0.298
					c0.537-0.086,1.082-0.226,1.645-0.25c0.564-0.03,1.136-0.059,1.716-0.09c2.325-0.104,4.792,0.177,7.259,0.794
					c2.448,0.658,4.923,1.576,7.238,2.866c1.219,0.548,2.269,1.365,3.396,2.08l1.671,1.107l1.561,1.083
					c2.045,1.396,4.205,2.602,6.468,3.531c2.256,0.911,4.558,1.617,6.853,1.977c2.292,0.361,4.552,0.479,6.697,0.36
					c2.143-0.128,4.169-0.44,6.016-0.87c3.694-0.878,6.663-2.144,8.679-3.139c2.021-0.999,3.106-1.727,3.106-1.727
					s-0.923,0.926-2.801,2.241c-1.876,1.301-4.726,3.009-8.509,4.282c-3.753,1.288-8.506,2.086-13.556,1.47
					c-2.512-0.312-5.094-0.908-7.564-1.905c-2.467-0.973-4.873-2.266-7.117-3.769l-1.613-1.154l-1.547-1.051
					c-1.041-0.678-2.019-1.47-3.132-1.979c-0.541-0.286-1.079-0.571-1.615-0.854c-0.529-0.3-1.059-0.591-1.624-0.782
					c-0.554-0.22-1.105-0.439-1.653-0.657c-0.547-0.22-1.087-0.456-1.654-0.569c-2.223-0.624-4.432-1.06-6.558-1.103
					c-0.532-0.009-1.057-0.018-1.574-0.026c-0.519-0.016-1.021,0.09-1.524,0.115c-0.502,0.046-0.995,0.091-1.48,0.136
					c-0.478,0.096-0.947,0.19-1.406,0.282c-0.933,0.144-1.784,0.447-2.613,0.685c-0.842,0.207-1.579,0.575-2.309,0.835
					c-0.724,0.277-1.353,0.641-1.974,0.91c-0.602,0.302-1.134,0.621-1.629,0.888c-0.478,0.298-0.904,0.564-1.275,0.796
					c-0.361,0.25-0.668,0.463-0.916,0.636C327.164,221.924,326.913,222.135,326.913,222.135z"/>
			</g>
			<g id="XMLID_39_">
				<path id="XMLID_61_" style="fill:#FFFFFF;" d="M375.719,222.135c0,0,0.208-0.247,0.628-0.695
					c0.428-0.437,1.067-1.071,1.958-1.797c0.459-0.342,0.955-0.745,1.525-1.143c0.584-0.373,1.202-0.813,1.912-1.193
					c1.409-0.777,3.062-1.602,4.995-2.155c0.483-0.144,0.975-0.291,1.478-0.441c0.516-0.098,1.041-0.197,1.575-0.298
					c0.537-0.086,1.082-0.226,1.645-0.25c0.564-0.03,1.136-0.059,1.716-0.09c2.325-0.104,4.792,0.177,7.259,0.794
					c2.448,0.658,4.922,1.576,7.238,2.866c1.219,0.548,2.269,1.365,3.396,2.08l1.671,1.107l1.561,1.083
					c2.045,1.396,4.205,2.602,6.468,3.531c2.256,0.911,4.558,1.617,6.853,1.977c2.292,0.361,4.552,0.479,6.697,0.36
					c2.143-0.128,4.169-0.44,6.016-0.87c3.694-0.878,6.663-2.144,8.679-3.139c2.021-0.999,3.106-1.727,3.106-1.727
					s-0.923,0.926-2.801,2.241c-1.876,1.301-4.726,3.009-8.509,4.282c-3.753,1.288-8.506,2.086-13.556,1.47
					c-2.512-0.312-5.094-0.908-7.564-1.905c-2.467-0.973-4.873-2.266-7.117-3.769l-1.613-1.154l-1.547-1.051
					c-1.041-0.678-2.019-1.47-3.132-1.979c-0.541-0.286-1.079-0.571-1.615-0.854c-0.529-0.3-1.059-0.591-1.624-0.782
					c-0.554-0.22-1.105-0.439-1.653-0.657c-0.547-0.22-1.087-0.456-1.654-0.569c-2.223-0.624-4.432-1.06-6.558-1.103
					c-0.532-0.009-1.057-0.018-1.574-0.026c-0.519-0.016-1.021,0.09-1.524,0.115c-0.502,0.046-0.995,0.091-1.48,0.136
					c-0.478,0.096-0.947,0.19-1.406,0.282c-0.933,0.144-1.784,0.447-2.613,0.685c-0.842,0.207-1.579,0.575-2.309,0.835
					c-0.724,0.277-1.353,0.641-1.973,0.91c-0.602,0.302-1.134,0.621-1.629,0.888c-0.478,0.298-0.904,0.564-1.275,0.796
					c-0.361,0.25-0.668,0.463-0.916,0.636C375.97,221.924,375.719,222.135,375.719,222.135z"/>
			</g>
			<g id="XMLID_15_">
				<path id="XMLID_55_" style="fill:#FFFFFF;" d="M273.59,222.135c0,0,0.207-0.247,0.628-0.695
					c0.428-0.437,1.067-1.071,1.958-1.797c0.459-0.342,0.955-0.745,1.525-1.143c0.584-0.373,1.202-0.813,1.912-1.193
					c1.409-0.777,3.062-1.602,4.996-2.155c0.483-0.144,0.975-0.291,1.478-0.441c0.516-0.098,1.041-0.197,1.575-0.298
					c0.537-0.086,1.082-0.226,1.645-0.25c0.564-0.03,1.136-0.059,1.716-0.09c2.325-0.104,4.792,0.177,7.259,0.794
					c2.448,0.658,4.922,1.576,7.238,2.866c1.219,0.548,2.269,1.365,3.396,2.08l1.671,1.107l1.561,1.083
					c2.045,1.396,4.205,2.602,6.468,3.531c2.256,0.911,4.558,1.617,6.853,1.977c2.292,0.361,4.552,0.479,6.697,0.36
					c2.143-0.128,4.169-0.44,6.016-0.87c3.694-0.878,6.663-2.144,8.68-3.139c2.021-0.999,3.106-1.727,3.106-1.727
					s-0.923,0.926-2.802,2.241c-1.876,1.301-4.726,3.009-8.509,4.282c-3.753,1.288-8.506,2.086-13.556,1.47
					c-2.512-0.312-5.094-0.908-7.564-1.905c-2.467-0.973-4.873-2.266-7.117-3.769l-1.613-1.154l-1.547-1.051
					c-1.041-0.678-2.019-1.47-3.132-1.979c-0.541-0.286-1.079-0.571-1.615-0.854c-0.529-0.3-1.059-0.591-1.624-0.782
					c-0.554-0.22-1.106-0.439-1.653-0.657c-0.547-0.22-1.087-0.456-1.654-0.569c-2.223-0.624-4.432-1.06-6.558-1.103
					c-0.532-0.009-1.057-0.018-1.574-0.026c-0.519-0.016-1.021,0.09-1.524,0.115c-0.502,0.046-0.995,0.091-1.48,0.136
					c-0.478,0.096-0.947,0.19-1.406,0.282c-0.933,0.144-1.784,0.447-2.613,0.685c-0.842,0.207-1.579,0.575-2.309,0.835
					c-0.724,0.277-1.353,0.641-1.973,0.91c-0.602,0.302-1.134,0.621-1.629,0.888c-0.478,0.298-0.904,0.564-1.275,0.796
					c-0.361,0.25-0.668,0.463-0.916,0.636C273.841,221.924,273.59,222.135,273.59,222.135z"/>
			</g>
		</g>
	</g>
	<g id="XMLID_2_">
		<g id="XMLID_108_">
			<g id="XMLID_112_">
				<path id="XMLID_82_" style="fill:#FFFFFF;" d="M45.816,215.691c0,0,0.005,0.107,0.015,0.315
					c-0.008,0.208,0.065,0.515,0.005,0.919c-0.025,0.205-0.053,0.434-0.084,0.686c-0.062,0.245-0.149,0.507-0.234,0.798
					c-0.094,0.287-0.264,0.566-0.414,0.883c-0.19,0.289-0.405,0.598-0.663,0.895c-0.531,0.586-1.237,1.127-2.108,1.552
					c-0.882,0.392-1.932,0.634-3.074,0.594c-1.135-0.041-2.379-0.384-3.46-1.147c-0.262-0.195-0.512-0.416-0.77-0.635l-0.096-0.083
					l-0.024-0.021l-0.054-0.06l-0.037-0.043l-0.15-0.171l-0.303-0.345l-0.306-0.352l-0.297-0.441
					c-0.185-0.299-0.428-0.598-0.561-0.915c-1.347-2.473-1.685-5.713-0.736-8.812c0.474-1.547,1.278-3.07,2.463-4.364
					c0.314-0.305,0.62-0.626,0.956-0.918c0.358-0.266,0.714-0.544,1.092-0.79c0.417-0.224,0.75-0.425,1.25-0.661
					c0.393-0.147,0.687-0.306,1.165-0.445c3.539-1.224,7.564-0.449,10.669,1.509c0.773,0.495,1.535,1.014,2.228,1.611
					c0.361,0.283,0.683,0.606,1.027,0.909l0.924,0.872c1.232,1.155,2.489,2.298,3.765,3.41c2.532,2.255,5.144,4.392,7.823,6.355
					c1.34,0.963,2.69,1.869,4.051,2.703c1.37,0.814,2.765,1.512,4.169,2.082c1.413,0.528,2.833,0.889,4.226,1.048
					c1.387,0.096,2.74-0.017,3.979-0.436c1.204-0.467,2.363-1.113,3.261-1.989c0.29-0.238,0.438-0.458,0.614-0.674
					c0.181-0.209,0.36-0.429,0.507-0.702c0.343-0.497,0.568-1.05,0.81-1.587c0.4-1.11,0.58-2.243,0.609-3.328
					c-0.017-1.082-0.208-2.101-0.572-2.992c-0.765-1.771-2.265-2.824-3.648-3.177c-0.173-0.048-0.338-0.114-0.505-0.145
					c-0.17-0.019-0.336-0.038-0.496-0.056c-0.322-0.033-0.627-0.087-0.911-0.104c-0.565-0.015-1.051,0.062-1.435,0.157
					c-0.385,0.097-0.671,0.211-0.86,0.295c-0.188,0.089-0.284,0.135-0.284,0.135s0.09-0.059,0.265-0.172
					c0.178-0.109,0.45-0.261,0.83-0.413c0.38-0.148,0.869-0.296,1.469-0.36c0.298-0.022,0.618-0.013,0.963-0.017
					c0.173,0.001,0.351,0.002,0.535,0.003c0.183,0.013,0.368,0.063,0.561,0.094c0.382,0.082,0.805,0.115,1.202,0.313
					c0.41,0.162,0.849,0.322,1.237,0.623c0.857,0.49,1.531,1.355,2.111,2.321c0.525,1.005,0.858,2.173,0.988,3.432
					c0.083,1.258-0.046,2.593-0.424,3.938c-0.234,0.658-0.463,1.338-0.835,1.979c-0.151,0.329-0.368,0.655-0.611,0.98
					c-0.233,0.327-0.479,0.674-0.715,0.893c-1.025,1.129-2.378,1.983-3.876,2.649c-1.533,0.612-3.231,0.845-4.931,0.806
					c-1.697-0.086-3.36-0.497-4.977-1.036c-3.197-1.169-6.196-2.905-8.996-4.911c-2.785-1.998-5.509-4.175-8.115-6.458
					c-1.296-1.153-2.563-2.329-3.81-3.522l-0.928-0.893c-0.294-0.262-0.569-0.548-0.876-0.791c-0.589-0.521-1.229-0.96-1.869-1.383
					c-1.307-0.79-2.691-1.412-4.114-1.666c-1.401-0.29-2.9-0.176-4.172,0.186c-0.302,0.062-0.731,0.257-1.088,0.377l-0.862,0.43
					c-0.287,0.175-0.553,0.381-0.836,0.561c-0.263,0.208-0.505,0.443-0.761,0.659c-0.959,0.943-1.672,2.123-2.123,3.367
					c-0.887,2.495-0.813,5.219,0.157,7.345c0.441,0.977,1.181,2.043,1.931,2.676c0.786,0.672,1.748,1.039,2.684,1.159
					c0.942,0.123,1.853-0.01,2.66-0.258c0.793-0.288,1.474-0.695,2.008-1.168c1.057-0.96,1.522-2.094,1.655-2.857
					c0.112-0.383,0.081-0.703,0.116-0.907C45.807,215.798,45.816,215.691,45.816,215.691z"/>
			</g>
			<g id="XMLID_109_">
				<path id="XMLID_80_" style="fill:#FFFFFF;" d="M60.006,214.715c0,0,0.3-0.016,0.803,0.089c0.255,0.045,0.554,0.128,0.895,0.245
					c0.326,0.138,0.726,0.267,1.104,0.509c0.398,0.215,0.795,0.509,1.198,0.857c0.217,0.158,0.379,0.385,0.577,0.59
					c0.194,0.21,0.386,0.43,0.538,0.693c0.165,0.253,0.322,0.519,0.477,0.792c0.12,0.29,0.238,0.589,0.343,0.895
					c0.124,0.303,0.186,0.622,0.228,0.947c0.04,0.324,0.111,0.652,0.117,0.976l-0.055,0.967l-0.039,0.479l-0.116,0.451
					c-0.163,0.592-0.3,1.195-0.587,1.682c-0.267,0.498-0.493,1.001-0.806,1.397c-0.312,0.398-0.618,0.761-0.906,1.085
					c-0.273,0.336-0.603,0.572-0.877,0.792c-0.269,0.223-0.527,0.396-0.732,0.541c-0.414,0.286-0.673,0.42-0.673,0.42
					s0.057-0.301,0.195-0.778c0.071-0.237,0.149-0.527,0.264-0.834c0.105-0.314,0.245-0.654,0.335-1.042
					c0.107-0.381,0.229-0.78,0.37-1.188c0.147-0.407,0.191-0.852,0.32-1.28c0.153-0.43,0.14-0.876,0.232-1.31l0.056-0.328
					c-0.006-0.108-0.004-0.215-0.002-0.322l0.022-0.643c0.006-0.213-0.045-0.415-0.059-0.624c-0.023-0.207-0.017-0.42-0.089-0.615
					c-0.055-0.198-0.095-0.4-0.131-0.605c-0.077-0.191-0.152-0.382-0.214-0.58c-0.135-0.389-0.332-0.756-0.516-1.116
					c-0.201-0.352-0.399-0.699-0.62-1.005c-0.199-0.325-0.428-0.597-0.612-0.868c-0.21-0.237-0.376-0.49-0.536-0.667
					C60.19,214.934,60.006,214.715,60.006,214.715z"/>
			</g>
		</g>
		<g id="XMLID_77_">
			<g id="XMLID_100_">
				<path id="XMLID_78_" style="fill:#FFFFFF;" d="M204.699,215.691c0,0,0.009,0.107,0.026,0.314
					c0.035,0.203,0.003,0.524,0.115,0.907c0.133,0.763,0.598,1.897,1.655,2.857c0.534,0.474,1.215,0.88,2.008,1.168
					c0.807,0.248,1.718,0.38,2.66,0.258c0.936-0.12,1.898-0.487,2.684-1.159c0.749-0.633,1.489-1.699,1.931-2.676
					c0.969-2.126,1.044-4.85,0.157-7.345c-0.451-1.244-1.164-2.424-2.123-3.367c-0.256-0.216-0.498-0.451-0.761-0.659
					c-0.283-0.18-0.549-0.387-0.836-0.561l-0.862-0.43c-0.357-0.121-0.786-0.316-1.088-0.377c-1.272-0.363-2.77-0.476-4.172-0.186
					c-1.423,0.254-2.807,0.875-4.114,1.666c-0.641,0.424-1.28,0.862-1.869,1.383c-0.307,0.243-0.582,0.529-0.876,0.791l-0.928,0.893
					c-1.247,1.193-2.514,2.369-3.81,3.522c-2.605,2.283-5.33,4.46-8.115,6.458c-2.8,2.006-5.798,3.742-8.996,4.911
					c-1.617,0.539-3.28,0.951-4.977,1.036c-1.7,0.039-3.398-0.194-4.931-0.806c-1.498-0.667-2.852-1.52-3.876-2.649
					c-0.236-0.219-0.482-0.566-0.715-0.893c-0.244-0.325-0.46-0.651-0.611-0.98c-0.372-0.641-0.601-1.321-0.835-1.979
					c-0.378-1.346-0.506-2.68-0.424-3.938c0.131-1.259,0.463-2.427,0.988-3.432c0.58-0.965,1.254-1.83,2.111-2.321
					c0.387-0.302,0.827-0.461,1.237-0.623c0.397-0.198,0.82-0.23,1.202-0.313c0.193-0.032,0.378-0.081,0.561-0.094
					c0.184-0.001,0.362-0.002,0.535-0.003c0.345,0.004,0.665-0.005,0.963,0.017c0.6,0.064,1.09,0.212,1.469,0.36
					c0.38,0.151,0.652,0.304,0.83,0.413c0.175,0.113,0.265,0.172,0.265,0.172s-0.097-0.046-0.284-0.135
					c-0.189-0.084-0.476-0.197-0.86-0.295c-0.384-0.094-0.87-0.172-1.435-0.157c-0.284,0.016-0.589,0.07-0.911,0.104
					c-0.161,0.018-0.326,0.036-0.497,0.056c-0.168,0.031-0.333,0.097-0.505,0.145c-1.383,0.353-2.883,1.407-3.648,3.177
					c-0.364,0.891-0.555,1.91-0.572,2.992c0.03,1.085,0.209,2.218,0.609,3.328c0.242,0.536,0.467,1.09,0.81,1.587
					c0.147,0.273,0.326,0.493,0.507,0.702c0.177,0.217,0.324,0.437,0.615,0.674c0.898,0.875,2.057,1.522,3.261,1.989
					c1.238,0.419,2.592,0.532,3.979,0.436c1.392-0.16,2.813-0.52,4.226-1.048c1.404-0.57,2.799-1.268,4.169-2.082
					c1.36-0.834,2.71-1.739,4.051-2.703c2.679-1.963,5.291-4.1,7.823-6.355c1.276-1.113,2.533-2.255,3.765-3.41l0.924-0.872
					c0.343-0.303,0.665-0.625,1.027-0.909c0.692-0.597,1.455-1.116,2.228-1.611c3.105-1.958,7.13-2.733,10.669-1.509
					c0.477,0.139,0.772,0.298,1.165,0.445c0.5,0.236,0.833,0.438,1.25,0.661c0.378,0.246,0.734,0.524,1.092,0.79
					c0.336,0.292,0.641,0.613,0.956,0.918c1.185,1.294,1.989,2.817,2.463,4.364c0.949,3.099,0.611,6.339-0.736,8.812
					c-0.133,0.316-0.376,0.616-0.561,0.915l-0.297,0.441l-0.306,0.352l-0.303,0.345l-0.15,0.171l-0.037,0.043l-0.054,0.06
					l-0.024,0.021l-0.096,0.083c-0.257,0.219-0.508,0.44-0.77,0.635c-1.081,0.763-2.325,1.106-3.46,1.147
					c-1.142,0.04-2.192-0.202-3.074-0.594c-0.871-0.425-1.578-0.966-2.108-1.552c-0.258-0.297-0.472-0.606-0.663-0.895
					c-0.15-0.317-0.32-0.596-0.414-0.883c-0.086-0.29-0.173-0.553-0.234-0.798c-0.031-0.252-0.059-0.481-0.084-0.686
					c-0.06-0.404,0.012-0.711,0.005-0.919C204.694,215.798,204.699,215.691,204.699,215.691z"/>
			</g>
			<g id="XMLID_94_">
				<path id="XMLID_75_" style="fill:#FFFFFF;" d="M190.509,214.715c0,0-0.184,0.219-0.505,0.602
					c-0.161,0.177-0.326,0.429-0.536,0.667c-0.185,0.271-0.413,0.543-0.612,0.868c-0.222,0.306-0.419,0.653-0.62,1.005
					c-0.184,0.36-0.381,0.727-0.516,1.116c-0.062,0.198-0.137,0.389-0.214,0.58c-0.036,0.205-0.077,0.407-0.131,0.605
					c-0.072,0.194-0.067,0.408-0.089,0.615c-0.014,0.208-0.065,0.411-0.059,0.624l0.022,0.643c0.002,0.107,0.004,0.214-0.002,0.322
					l0.057,0.328c0.092,0.434,0.079,0.88,0.231,1.31c0.13,0.428,0.174,0.873,0.321,1.28c0.141,0.408,0.263,0.807,0.37,1.188
					c0.09,0.388,0.231,0.728,0.336,1.042c0.116,0.307,0.193,0.597,0.264,0.834c0.138,0.477,0.195,0.778,0.195,0.778
					s-0.259-0.134-0.673-0.42c-0.205-0.144-0.463-0.317-0.732-0.541c-0.274-0.22-0.604-0.456-0.877-0.792
					c-0.288-0.323-0.594-0.686-0.906-1.085c-0.312-0.396-0.539-0.9-0.806-1.397c-0.288-0.487-0.424-1.09-0.587-1.682l-0.116-0.451
					l-0.04-0.479l-0.055-0.967c0.006-0.324,0.077-0.652,0.117-0.976c0.042-0.326,0.104-0.645,0.228-0.947
					c0.105-0.307,0.223-0.606,0.343-0.895c0.155-0.273,0.312-0.539,0.477-0.792c0.152-0.262,0.344-0.482,0.538-0.693
					c0.198-0.204,0.36-0.432,0.577-0.59c0.403-0.349,0.8-0.642,1.198-0.857c0.378-0.241,0.778-0.371,1.105-0.509
					c0.341-0.118,0.64-0.2,0.895-0.245C190.209,214.699,190.509,214.715,190.509,214.715z"/>
			</g>
		</g>
		
			<text id="XMLID_71_" transform="matrix(1 0 0 1 93.1815 220.9627)" style="fill:#FFFFFF; font-family:'CACChampagne'; font-size:26.302px;">Wedding</text>
	</g>
	<g id="XMLID_25_">
		<path id="XMLID_88_" style="fill:#F6F6F6;" d="M131.915,314.237c-2.965,0-5.474,1.948-6.319,4.634
			c-0.845-2.686-3.354-4.634-6.319-4.634c-3.659,0-6.624,2.966-6.624,6.624c0,1.532,0.525,2.938,1.397,4.06l-0.006,0.003
			l0.039,0.042c0.226,0.286,0.477,0.551,0.747,0.796l10.46,11.145l11.072-11.146c0.17-0.154,0.332-0.317,0.485-0.488l0.051-0.052
			l-0.002-0.002c1.02-1.165,1.643-2.687,1.643-4.357C138.54,317.203,135.574,314.237,131.915,314.237z"/>
		<g id="XMLID_26_">
			<path id="XMLID_72_" style="fill:#FFFFFF;" d="M52.719,304.835c1.471-0.52,3.014-0.83,4.57-1.025
				c0.779-0.083,1.564-0.141,2.349-0.173c0.784,0.023,1.575-0.011,2.359,0.059c0.782,0.088,1.574,0.124,2.351,0.257l2.328,0.449
				l2.278,0.672c0.765,0.215,1.474,0.579,2.215,0.862l1.102,0.456l1.046,0.568c0.692,0.387,1.409,0.741,2.084,1.16l1.961,1.358
				c0.324,0.231,0.662,0.445,0.974,0.691l0.897,0.785l1.795,1.574c0.59,0.534,1.095,1.149,1.647,1.72l1.623,1.749l1.444,1.89
				l1.444,1.895l1.366,1.867c0.465,0.606,0.943,1.171,1.412,1.758c0.504,0.559,1.007,1.124,1.528,1.664
				c1.073,1.042,2.169,2.069,3.397,2.874c1.214,0.817,2.497,1.518,3.852,1.954c1.353,0.436,2.758,0.626,4.153,0.563
				c1.396-0.059,2.78-0.4,4.091-0.956c1.31-0.556,2.564-1.295,3.708-2.196c1.134-0.876,2.245-1.951,3.086-2.998l2.3,1.549
				c-0.471,0.761-0.908,1.305-1.419,1.889c-0.505,0.563-1.031,1.104-1.598,1.597c-1.122,1-2.368,1.856-3.69,2.563
				c-2.643,1.424-5.597,2.217-8.544,2.431c-2.953,0.23-5.902-0.064-8.729-0.707c-2.832-0.64-5.55-1.622-8.159-2.789
				c-2.626-1.144-5.104-2.548-7.536-4.004c-2.403-1.501-4.757-3.074-7.003-4.777l-3.342-2.502l-1.667-1.25l-1.675-1.154
				c-2.23-1.546-4.588-2.949-7-4.163c-2.408-1.239-4.943-2.177-7.514-2.759c-2.561-0.573-5.235-0.706-7.619,0.088
				c-2.408,0.718-4.37,2.495-5.507,4.757c-1.139,2.266-1.478,4.984-0.985,7.508c0.253,1.258,0.732,2.476,1.48,3.472
				c0.206,0.228,0.385,0.488,0.609,0.696c0.227,0.183,0.465,0.443,0.678,0.571c0.586,0.35,1.166,0.819,1.747,1.084
				c2.268,1.193,5.043,1.74,7.71,1.518c2.687-0.186,5.333-1.214,7.414-2.952c2.117-1.707,3.355-4.445,3.224-7.239
				c0.324,2.754-0.707,5.737-2.853,7.648c-2.09,1.942-4.827,3.173-7.676,3.523c-2.86,0.368-5.789,0.001-8.519-1.263
				c-0.694-0.294-1.23-0.683-1.848-1.027c-0.387-0.227-0.629-0.484-0.949-0.73c-0.292-0.257-0.53-0.562-0.796-0.844
				c-0.972-1.201-1.582-2.621-1.933-4.072c-0.676-2.908-0.424-6.021,0.837-8.786c1.263-2.745,3.696-5.071,6.626-6.029
				c2.91-1.046,6.007-0.938,8.863-0.385c2.868,0.582,5.607,1.572,8.171,2.832c2.578,1.247,5.038,2.658,7.409,4.243l1.781,1.188
				l1.693,1.227l3.359,2.478c2.198,1.649,4.486,3.158,6.81,4.593c2.348,1.387,4.731,2.722,7.218,3.787
				c2.477,1.081,5.015,2.006,7.612,2.613c2.594,0.605,5.247,0.875,7.847,0.685c2.598-0.174,5.141-0.851,7.409-2.056
				c1.135-0.598,2.199-1.326,3.172-2.158c0.491-0.411,0.943-0.864,1.375-1.329c0.419-0.45,0.849-1.002,1.119-1.419l2.3,1.549
				c-1.133,1.365-2.31,2.438-3.649,3.453c-1.322,1.004-2.787,1.844-4.354,2.479c-1.567,0.633-3.262,1.027-4.983,1.072
				c-1.72,0.06-3.442-0.243-5.041-0.804c-1.603-0.566-3.058-1.415-4.398-2.371c-1.356-0.947-2.517-2.094-3.644-3.251
				c-0.544-0.595-1.062-1.209-1.584-1.821c-0.488-0.642-0.997-1.285-1.463-1.927l-1.326-1.953l-1.322-1.872l-1.323-1.877
				l-1.495-1.733c-0.509-0.568-0.974-1.182-1.52-1.714l-1.664-1.57l-0.833-0.787c-0.288-0.249-0.599-0.469-0.898-0.706l-1.812-1.4
				c-0.626-0.434-1.294-0.805-1.94-1.213l-0.978-0.6l-1.035-0.491c-0.698-0.308-1.367-0.698-2.092-0.942l-2.17-0.764l-2.237-0.552
				c-0.75-0.169-1.518-0.242-2.279-0.368c-0.763-0.109-1.536-0.114-2.306-0.177c-0.771-0.013-1.546-0.016-2.319,0.015
				C55.771,304.219,54.222,304.419,52.719,304.835z"/>
		</g>
		<g id="XMLID_27_">
			<path id="XMLID_69_" style="fill:#FFFFFF;" d="M197.796,304.835c-1.503-0.417-3.052-0.617-4.597-0.703
				c-0.773-0.03-1.549-0.028-2.319-0.015c-0.77,0.063-1.543,0.068-2.306,0.177c-0.761,0.126-1.528,0.2-2.278,0.368l-2.237,0.552
				l-2.17,0.764c-0.726,0.244-1.394,0.634-2.092,0.942l-1.035,0.491l-0.978,0.6c-0.646,0.408-1.314,0.779-1.94,1.213l-1.812,1.4
				c-0.299,0.237-0.61,0.457-0.898,0.706l-0.833,0.787l-1.664,1.57c-0.546,0.531-1.011,1.146-1.52,1.714l-1.495,1.733l-1.323,1.877
				l-1.322,1.872l-1.326,1.953c-0.465,0.643-0.975,1.285-1.462,1.927c-0.522,0.613-1.04,1.226-1.584,1.821
				c-1.127,1.157-2.288,2.303-3.644,3.251c-1.34,0.956-2.795,1.805-4.398,2.371c-1.599,0.561-3.321,0.863-5.041,0.804
				c-1.721-0.046-3.416-0.439-4.983-1.072c-1.568-0.634-3.033-1.475-4.354-2.479c-1.339-1.015-2.516-2.089-3.649-3.453l2.3-1.549
				c0.27,0.417,0.7,0.969,1.119,1.419c0.432,0.465,0.884,0.918,1.375,1.329c0.973,0.831,2.037,1.559,3.172,2.158
				c2.268,1.205,4.81,1.882,7.408,2.056c2.6,0.189,5.253-0.08,7.847-0.685c2.597-0.606,5.135-1.532,7.612-2.613
				c2.487-1.065,4.87-2.4,7.218-3.787c2.324-1.436,4.613-2.945,6.81-4.593l3.359-2.478l1.693-1.227l1.781-1.188
				c2.371-1.585,4.831-2.996,7.409-4.243c2.564-1.259,5.303-2.249,8.171-2.832c2.856-0.553,5.953-0.661,8.863,0.385
				c2.931,0.958,5.363,3.284,6.626,6.029c1.262,2.764,1.514,5.878,0.837,8.786c-0.351,1.451-0.961,2.871-1.933,4.072
				c-0.266,0.282-0.503,0.588-0.796,0.844c-0.319,0.246-0.562,0.504-0.949,0.73c-0.618,0.344-1.154,0.733-1.848,1.027
				c-2.73,1.264-5.658,1.631-8.519,1.263c-2.849-0.35-5.586-1.581-7.676-3.523c-2.146-1.91-3.177-4.893-2.853-7.648
				c-0.131,2.793,1.107,5.532,3.224,7.239c2.08,1.739,4.727,2.766,7.413,2.952c2.667,0.222,5.442-0.325,7.71-1.518
				c0.581-0.265,1.162-0.735,1.747-1.084c0.213-0.128,0.452-0.389,0.678-0.571c0.223-0.209,0.403-0.469,0.609-0.696
				c0.748-0.996,1.228-2.214,1.48-3.472c0.493-2.524,0.154-5.242-0.985-7.508c-1.137-2.262-3.099-4.039-5.507-4.757
				c-2.384-0.794-5.058-0.661-7.62-0.088c-2.571,0.582-5.106,1.52-7.514,2.759c-2.412,1.214-4.77,2.617-7,4.163l-1.675,1.154
				l-1.667,1.25l-3.342,2.502c-2.246,1.704-4.6,3.276-7.003,4.777c-2.433,1.456-4.91,2.861-7.536,4.004
				c-2.609,1.167-5.327,2.149-8.159,2.789c-2.827,0.643-5.776,0.937-8.729,0.707c-2.948-0.214-5.902-1.007-8.544-2.431
				c-1.322-0.706-2.568-1.562-3.69-2.563c-0.567-0.493-1.093-1.034-1.598-1.597c-0.512-0.584-0.948-1.128-1.419-1.889l2.3-1.549
				c0.84,1.047,1.951,2.121,3.085,2.998c1.144,0.901,2.398,1.639,3.708,2.196c1.311,0.555,2.695,0.897,4.092,0.956
				c1.395,0.063,2.8-0.127,4.153-0.563c1.355-0.436,2.638-1.136,3.852-1.954c1.228-0.805,2.324-1.832,3.397-2.874
				c0.521-0.54,1.024-1.106,1.528-1.664c0.469-0.587,0.946-1.152,1.412-1.758l1.366-1.867l1.444-1.895l1.444-1.89l1.623-1.749
				c0.552-0.572,1.057-1.186,1.647-1.72l1.795-1.574l0.897-0.785c0.312-0.246,0.651-0.46,0.974-0.691l1.961-1.358
				c0.675-0.419,1.392-0.772,2.084-1.16l1.046-0.568l1.102-0.456c0.742-0.284,1.451-0.647,2.215-0.862l2.278-0.672l2.328-0.449
				c0.777-0.133,1.57-0.169,2.351-0.257c0.784-0.07,1.575-0.036,2.359-0.059c0.785,0.033,1.57,0.09,2.349,0.173
				C194.781,304.005,196.325,304.316,197.796,304.835z"/>
		</g>
	</g>
	<g id="XMLID_52_">
		<g id="XMLID_41_">
			<g id="XMLID_40_">
				<path id="XMLID_67_" style="fill:#FFFFFF;" d="M289.831,294.887c0,0,0.182,0.002,0.531,0.056
					c0.346,0.059,0.868,0.156,1.499,0.446c0.612,0.289,1.393,0.813,1.803,1.792c0.115,0.24,0.171,0.517,0.228,0.764
					c0.029,0.286,0.062,0.59,0.03,0.884c-0.05,0.594-0.202,1.223-0.518,1.823c-0.595,1.183-1.927,2.331-3.639,2.399
					c-0.827,0.039-1.705-0.072-2.518-0.392c-0.841-0.25-1.714-0.854-2.296-1.625c-1.213-1.546-1.715-3.635-1.553-5.768
					c0.16-2.121,1.181-4.44,3.203-5.895c0.997-0.719,2.182-1.196,3.407-1.425c1.241-0.221,2.46-0.259,3.76-0.066l0.875,0.124
					c0.148,0.024,0.289,0.034,0.444,0.07l0.485,0.143c0.64,0.206,1.332,0.359,1.906,0.687l0.903,0.445
					c0.298,0.156,0.562,0.373,0.845,0.56c0.582,0.363,1.075,0.835,1.571,1.313c0.509,0.465,0.9,1.035,1.341,1.568
					c0.359,0.582,0.783,1.143,1.068,1.769c0.665,1.216,1.112,2.529,1.487,3.864c0.367,1.34,0.603,2.716,0.71,4.128
					c0.141,1.424-0.022,2.94-0.219,4.318c-0.419,2.804-1.189,5.622-2.502,8.311c-1.33,2.659-3.324,5.217-6.098,6.862
					c-0.706,0.367-1.431,0.727-2.172,1.021c-0.765,0.216-1.533,0.49-2.306,0.641c-1.376,0.274-2.902,0.536-4.403,0.674
					c-2.987,0.284-6.086,0.279-9.133-0.465c-3.032-0.702-5.999-2.236-8.226-4.516c-0.272-0.289-0.558-0.567-0.815-0.867
					l-0.733-0.932c-0.257-0.303-0.447-0.646-0.664-0.972l-0.316-0.495l-0.079-0.124l-0.039-0.062
					c-0.042-0.076,0.038,0.084-0.103-0.187l-0.113-0.245c-0.148-0.346-0.304-0.61-0.446-1.023c-0.133-0.478-0.261-0.972-0.342-1.455
					c-0.012-0.465-0.023-0.933-0.003-1.396c0.092-0.456,0.183-0.918,0.31-1.362c0.617-1.774,1.941-3.079,3.344-3.915
					c1.423-0.827,2.953-1.355,4.482-1.565c3.066-0.487,6.072,0.028,8.798,0.922l1.017,0.357l0.253,0.09
					c0.062,0.024,0.04,0.009,0.171,0.065l0.116,0.052l0.462,0.208c0.58,0.243,1.326,0.658,1.921,1.014
					c1.23,0.736,2.337,1.606,3.348,2.534c2.03,1.842,3.684,3.944,5.202,5.884c0.188,0.23,0.379,0.472,0.558,0.671l0.317,0.374
					l0.325,0.425c0.361,0.503,0.72,1.003,1.076,1.499c0.7,0.979,1.406,1.923,2.106,2.848c1.411,1.838,2.842,3.561,4.315,5.117
					c2.943,3.111,5.991,5.634,9.021,7.315c3.035,1.667,6.038,2.412,8.53,2.431c2.495-0.006,4.443-0.52,5.705-1
					c0.642-0.219,1.099-0.473,1.426-0.604c0.321-0.144,0.487-0.218,0.487-0.218s-0.159,0.087-0.468,0.255
					c-0.315,0.156-0.755,0.448-1.382,0.718c-1.234,0.567-3.162,1.295-5.758,1.433c-2.584,0.132-5.779-0.462-9.049-2.021
					c-3.267-1.562-6.59-4.004-9.741-7.103c-1.587-1.541-3.13-3.249-4.655-5.072c-0.761-0.912-1.505-1.864-2.246-2.832
					c-0.365-0.478-0.733-0.959-1.104-1.443l-0.243-0.303l-0.292-0.325c-0.242-0.255-0.443-0.496-0.657-0.742
					c-1.611-1.937-3.206-3.829-5.112-5.457c-1.908-1.641-3.993-2.944-6.464-3.658c-2.428-0.751-5.055-1.129-7.533-0.678
					c-1.245,0.187-2.411,0.644-3.42,1.247c-1.012,0.603-1.802,1.465-2.119,2.422c-0.055,0.244-0.095,0.488-0.162,0.729
					c0.006,0.251,0.018,0.5,0.008,0.751c0.054,0.219,0.11,0.421,0.134,0.643c0.08,0.266,0.284,0.634,0.42,0.947l0.114,0.244
					c-0.119-0.231-0.014-0.035-0.031-0.073l0.034,0.052l0.067,0.103l0.269,0.413c0.184,0.271,0.342,0.564,0.558,0.808l0.609,0.767
					c0.214,0.246,0.451,0.469,0.674,0.705c1.832,1.848,4.233,3.085,6.842,3.684c2.6,0.658,5.393,0.694,8.148,0.447
					c1.378-0.119,2.702-0.334,4.148-0.612c0.638-0.123,1.227-0.345,1.845-0.501c0.585-0.233,1.151-0.513,1.713-0.791
					c2.168-1.285,3.855-3.319,5.07-5.621c1.19-2.324,1.955-4.893,2.383-7.456c0.205-1.308,0.365-2.493,0.267-3.739
					c-0.078-1.253-0.253-2.504-0.542-3.699c-0.297-1.191-0.655-2.36-1.192-3.408c-0.227-0.551-0.572-1.016-0.854-1.522
					c-0.355-0.443-0.66-0.937-1.065-1.321c-0.393-0.398-0.778-0.801-1.241-1.101c-0.225-0.156-0.429-0.346-0.668-0.477l-0.724-0.38
					c-0.473-0.299-0.975-0.397-1.458-0.587l-0.364-0.132c-0.132-0.036-0.288-0.056-0.43-0.086l-0.869-0.161
					c-2.084-0.388-4.285-0.126-5.86,0.927c-1.604,1.043-2.509,2.852-2.756,4.646c-0.25,1.794,0.097,3.641,1.012,4.941
					c0.458,0.662,1.024,1.12,1.751,1.394c0.71,0.33,1.446,0.456,2.139,0.468c1.416,0.028,2.567-0.843,3.167-1.856
					c0.309-0.51,0.476-1.065,0.552-1.59c0.046-0.269,0.037-0.512,0.037-0.755c-0.042-0.273-0.067-0.503-0.153-0.717
					c-0.293-0.898-0.973-1.451-1.544-1.776c-0.585-0.327-1.094-0.465-1.432-0.549C290.013,294.903,289.831,294.887,289.831,294.887z
					"/>
			</g>
			<g id="XMLID_29_">
				<path id="XMLID_59_" style="fill:#FFFFFF;" d="M302.429,315.154c0,0-0.157-0.272-0.452-0.783
					c-0.173-0.242-0.274-0.595-0.414-1.022c-0.189-0.422-0.17-0.937-0.227-1.521c0.041-1.16,0.552-2.616,1.73-3.793
					c1.15-1.191,2.833-2.114,4.777-2.594c1.942-0.495,4.145-0.604,6.4-0.264c1.115,0.209,2.27,0.425,3.396,0.812
					c0.305,0.096,0.529,0.155,0.904,0.283l0.796,0.328c0.52,0.216,1.164,0.549,1.702,0.85c2.184,1.255,4.187,2.913,5.91,4.803
					c0.87,0.937,1.691,1.922,2.483,2.887c0.41,0.492,0.746,0.913,1.185,1.38c0.176,0.193,0.48,0.582,0.657,0.819l0.57,0.759
					c1.46,2.016,2.947,3.963,4.525,5.792c1.579,1.822,3.18,3.567,4.865,5.102c1.687,1.527,3.393,2.918,5.145,4.017
					c1.752,1.094,3.512,1.948,5.22,2.497c1.708,0.552,3.356,0.771,4.824,0.785c1.476,0.035,2.759-0.203,3.817-0.415
					c0.52-0.149,0.985-0.282,1.389-0.398c0.409-0.113,0.733-0.271,1.01-0.369c0.549-0.213,0.842-0.327,0.842-0.327
					s-0.268,0.164-0.77,0.473c-0.494,0.333-1.264,0.734-2.289,1.189c-0.528,0.176-1.11,0.406-1.764,0.589
					c-0.661,0.153-1.381,0.342-2.171,0.404c-1.569,0.188-3.405,0.173-5.326-0.265c-1.925-0.408-3.943-1.157-5.91-2.228
					c-1.976-1.056-3.919-2.4-5.76-3.966c-1.838-1.568-3.655-3.281-5.305-5.183c-1.669-1.882-3.256-3.894-4.755-5.917l-0.547-0.75
					c-0.198-0.264-0.269-0.377-0.507-0.653c-0.413-0.449-0.854-1.008-1.235-1.48c-0.777-0.974-1.535-1.908-2.33-2.789
					c-1.586-1.757-3.266-3.338-5.119-4.489c-0.476-0.286-0.854-0.519-1.387-0.771l-0.78-0.365l-0.707-0.269
					c-0.988-0.422-1.997-0.678-2.981-0.94c-1.983-0.421-3.918-0.512-5.651-0.252c-1.727,0.269-3.256,0.877-4.351,1.755
					c-1.1,0.875-1.717,1.995-1.914,3.01c-0.113,1.026-0.009,1.858,0.197,2.418C302.323,314.858,302.429,315.154,302.429,315.154z"/>
			</g>
		</g>
		<g id="XMLID_51_">
			<g id="XMLID_141_">
				<path id="XMLID_57_" style="fill:#FFFFFF;" d="M442.939,294.887c0,0-0.182,0.016-0.523,0.096
					c-0.338,0.084-0.847,0.223-1.432,0.549c-0.571,0.325-1.252,0.878-1.544,1.776c-0.085,0.214-0.11,0.445-0.153,0.717
					c0,0.243-0.009,0.486,0.037,0.755c0.076,0.525,0.243,1.08,0.552,1.59c0.6,1.013,1.75,1.884,3.167,1.856
					c0.693-0.012,1.43-0.138,2.139-0.468c0.727-0.274,1.293-0.732,1.751-1.394c0.915-1.3,1.262-3.148,1.012-4.941
					c-0.247-1.794-1.152-3.604-2.756-4.646c-1.575-1.052-3.776-1.315-5.86-0.927l-0.869,0.161c-0.142,0.029-0.298,0.049-0.43,0.086
					l-0.364,0.132c-0.483,0.19-0.984,0.288-1.458,0.587l-0.724,0.38c-0.239,0.132-0.443,0.321-0.668,0.477
					c-0.463,0.3-0.848,0.703-1.241,1.101c-0.405,0.384-0.71,0.878-1.065,1.321c-0.283,0.506-0.628,0.97-0.854,1.522
					c-0.537,1.048-0.896,2.217-1.192,3.408c-0.289,1.195-0.464,2.447-0.542,3.699c-0.098,1.246,0.062,2.431,0.267,3.739
					c0.428,2.562,1.193,5.132,2.383,7.456c1.215,2.302,2.903,4.336,5.07,5.621c0.562,0.278,1.128,0.558,1.713,0.791
					c0.618,0.157,1.207,0.378,1.845,0.501c1.446,0.277,2.77,0.492,4.148,0.612c2.755,0.247,5.548,0.211,8.148-0.447
					c2.609-0.599,5.01-1.836,6.842-3.684c0.223-0.237,0.46-0.46,0.674-0.705l0.609-0.767c0.216-0.245,0.375-0.537,0.558-0.808
					l0.269-0.413l0.067-0.103l0.034-0.052c-0.018,0.038,0.088-0.158-0.032,0.073l0.114-0.244c0.136-0.313,0.34-0.681,0.42-0.947
					c0.025-0.222,0.08-0.424,0.134-0.643c-0.01-0.252,0.002-0.501,0.008-0.751c-0.067-0.241-0.107-0.485-0.162-0.729
					c-0.316-0.956-1.107-1.819-2.119-2.422c-1.009-0.603-2.175-1.06-3.42-1.247c-2.478-0.451-5.105-0.073-7.533,0.678
					c-2.471,0.714-4.557,2.017-6.464,3.658c-1.905,1.628-3.501,3.52-5.112,5.457c-0.214,0.246-0.415,0.487-0.657,0.742l-0.292,0.325
					l-0.243,0.303c-0.371,0.485-0.738,0.966-1.104,1.443c-0.742,0.968-1.485,1.921-2.246,2.832
					c-1.525,1.823-3.069,3.531-4.655,5.072c-3.151,3.099-6.474,5.54-9.741,7.103c-3.271,1.559-6.466,2.153-9.05,2.021
					c-2.595-0.138-4.524-0.865-5.758-1.433c-0.627-0.27-1.068-0.562-1.382-0.718c-0.309-0.168-0.468-0.255-0.468-0.255
					s0.166,0.074,0.487,0.218c0.326,0.131,0.784,0.385,1.425,0.604c1.262,0.479,3.211,0.994,5.705,1
					c2.492-0.019,5.495-0.764,8.53-2.431c3.03-1.682,6.078-4.205,9.021-7.315c1.473-1.556,2.904-3.279,4.315-5.117
					c0.7-0.925,1.406-1.868,2.106-2.848c0.356-0.496,0.715-0.996,1.076-1.499l0.325-0.425l0.317-0.374
					c0.179-0.199,0.37-0.441,0.558-0.671c1.518-1.94,3.173-4.042,5.202-5.884c1.01-0.927,2.117-1.798,3.348-2.534
					c0.596-0.357,1.341-0.771,1.922-1.014l0.462-0.208l0.116-0.052c0.131-0.056,0.109-0.041,0.171-0.065l0.253-0.09l1.017-0.357
					c2.726-0.894,5.732-1.409,8.798-0.922c1.53,0.21,3.059,0.737,4.482,1.565c1.404,0.836,2.727,2.141,3.344,3.915
					c0.127,0.444,0.218,0.906,0.31,1.362c0.02,0.462,0.009,0.931-0.003,1.396c-0.081,0.482-0.209,0.977-0.342,1.455
					c-0.143,0.413-0.298,0.677-0.446,1.023l-0.113,0.245c-0.141,0.271-0.062,0.111-0.103,0.187l-0.039,0.062l-0.079,0.124
					l-0.316,0.495c-0.217,0.326-0.408,0.67-0.664,0.972l-0.732,0.932c-0.258,0.3-0.543,0.578-0.815,0.867
					c-2.227,2.279-5.194,3.813-8.226,4.516c-3.047,0.743-6.146,0.749-9.133,0.465c-1.502-0.138-3.027-0.4-4.404-0.674
					c-0.773-0.152-1.541-0.425-2.306-0.641c-0.741-0.295-1.466-0.654-2.172-1.021c-2.774-1.645-4.768-4.203-6.098-6.862
					c-1.313-2.689-2.083-5.507-2.502-8.311c-0.197-1.377-0.36-2.894-0.219-4.318c0.108-1.413,0.343-2.789,0.71-4.128
					c0.374-1.335,0.822-2.648,1.487-3.864c0.285-0.626,0.709-1.187,1.068-1.769c0.441-0.533,0.832-1.103,1.341-1.568
					c0.496-0.478,0.989-0.95,1.571-1.313c0.284-0.187,0.547-0.405,0.845-0.56l0.903-0.445c0.574-0.329,1.266-0.481,1.906-0.687
					l0.486-0.143c0.155-0.035,0.296-0.046,0.444-0.07l0.875-0.124c1.3-0.193,2.519-0.155,3.76,0.066
					c1.225,0.229,2.41,0.707,3.407,1.425c2.022,1.455,3.044,3.775,3.203,5.895c0.163,2.133-0.34,4.222-1.553,5.768
					c-0.582,0.771-1.454,1.375-2.296,1.625c-0.813,0.32-1.691,0.431-2.518,0.392c-1.712-0.068-3.043-1.216-3.639-2.399
					c-0.316-0.599-0.467-1.229-0.518-1.823c-0.033-0.294,0-0.598,0.03-0.884c0.057-0.247,0.113-0.525,0.228-0.764
					c0.41-0.978,1.191-1.503,1.803-1.792c0.63-0.29,1.152-0.388,1.499-0.446C442.757,294.888,442.939,294.887,442.939,294.887z"/>
			</g>
			<g id="XMLID_134_">
				<path id="XMLID_50_" style="fill:#FFFFFF;" d="M430.341,315.154c0,0,0.106-0.296,0.305-0.85c0.207-0.561,0.31-1.393,0.197-2.418
					c-0.196-1.015-0.814-2.135-1.914-3.01c-1.095-0.878-2.623-1.486-4.351-1.755c-1.734-0.26-3.669-0.168-5.651,0.252
					c-0.984,0.262-1.993,0.518-2.981,0.94l-0.707,0.269l-0.78,0.365c-0.533,0.252-0.911,0.484-1.387,0.771
					c-1.853,1.151-3.533,2.732-5.119,4.489c-0.795,0.881-1.554,1.815-2.33,2.789c-0.38,0.472-0.821,1.031-1.234,1.48
					c-0.238,0.276-0.308,0.389-0.507,0.653l-0.547,0.75c-1.499,2.022-3.086,4.035-4.755,5.917c-1.65,1.902-3.467,3.616-5.305,5.183
					c-1.841,1.566-3.783,2.911-5.76,3.966c-1.967,1.07-3.984,1.819-5.91,2.228c-1.921,0.439-3.757,0.453-5.326,0.265
					c-0.791-0.062-1.511-0.25-2.172-0.404c-0.655-0.183-1.236-0.414-1.764-0.589c-1.026-0.455-1.796-0.855-2.289-1.189
					c-0.502-0.308-0.77-0.473-0.77-0.473s0.293,0.114,0.842,0.327c0.277,0.097,0.602,0.255,1.01,0.369
					c0.404,0.116,0.869,0.249,1.389,0.398c1.058,0.212,2.341,0.45,3.817,0.415c1.469-0.014,3.117-0.233,4.825-0.785
					c1.708-0.549,3.468-1.403,5.22-2.497c1.752-1.099,3.458-2.49,5.145-4.017c1.685-1.535,3.286-3.28,4.865-5.102
					c1.578-1.829,3.065-3.776,4.525-5.792l0.57-0.759c0.177-0.237,0.481-0.626,0.657-0.819c0.439-0.467,0.775-0.888,1.185-1.38
					c0.791-0.965,1.613-1.95,2.483-2.887c1.724-1.889,3.727-3.547,5.91-4.803c0.538-0.301,1.182-0.634,1.702-0.85l0.796-0.328
					c0.375-0.128,0.6-0.188,0.904-0.283c1.127-0.387,2.281-0.603,3.396-0.812c2.255-0.34,4.457-0.231,6.4,0.264
					c1.944,0.48,3.628,1.404,4.777,2.594c1.178,1.176,1.689,2.633,1.73,3.793c-0.057,0.584-0.038,1.098-0.228,1.521
					c-0.139,0.426-0.24,0.78-0.413,1.022C430.498,314.881,430.341,315.154,430.341,315.154z"/>
			</g>
		</g>
		<g id="XMLID_135_">
			
				<circle id="XMLID_49_" style="fill:none;stroke:#FFFFFF;stroke-width:3;stroke-miterlimit:10;" cx="353.466" cy="304.185" r="15.47"/>
			
				<circle id="XMLID_138_" style="fill:none;stroke:#FFFFFF;stroke-width:3;stroke-miterlimit:10;" cx="377.429" cy="304.185" r="15.47"/>
		</g>
	</g>
	<g id="XMLID_117_">
		<g id="XMLID_31_">
			<path id="XMLID_87_" style="fill:#FFFFFF;" d="M37.263,410.487c0,0-0.222,0.085-0.624,0.331
				c-0.394,0.247-0.976,0.656-1.519,1.356c-0.54,0.69-1.015,1.707-0.982,2.967c0.01,0.626,0.125,1.301,0.358,1.996
				c0.113,0.335,0.267,0.729,0.409,1.03c0.096,0.177,0.19,0.384,0.292,0.543c0.109,0.145,0.192,0.294,0.317,0.443
				c0.969,1.222,2.588,2.122,4.507,2.613c1.923,0.492,4.129,0.646,6.462,0.496c2.334-0.161,4.811-0.627,7.283-1.465
				c1.234-0.423,2.464-0.947,3.646-1.595c0.229-0.133,0.616-0.356,0.874-0.526c0.258-0.182,0.518-0.345,0.781-0.561
				c0.531-0.4,1.027-0.854,1.496-1.342c1.868-1.952,3.125-4.669,3.344-7.565c0.11-1.438-0.028-2.925-0.527-4.257
				c-0.494-1.31-1.369-2.523-2.486-2.996c-1.18-0.52-2.678-0.41-3.599,0.384c-0.956,0.779-1.343,2.339-1.22,3.96
				c0.023,0.406,0.076,0.82,0.146,1.235l0.111,0.584l0.176,0.658c0.229,0.705,0.607,1.493,1.056,2.207
				c0.912,1.444,2.162,2.734,3.571,3.848c2.828,2.217,6.35,3.781,10.067,4.197c3.698,0.474,7.667-0.538,10.425-3.208
				c2.786-2.61,4.528-6.285,5.182-10.103c0.347-1.911,0.442-3.873,0.293-5.809c-0.156-1.929-0.532-3.86-1.266-5.591
				c-0.366-0.841-0.853-1.695-1.44-2.198c-0.618-0.52-1.475-0.892-2.316-1.068c-0.844-0.179-1.726-0.162-2.406,0.127
				c-0.685,0.281-1.124,0.813-1.362,1.533c-0.443,1.475-0.058,3.455,0.481,5.129c0.529,1.688,1.654,2.911,3.161,3.582
				c1.508,0.676,3.316,0.821,5.106,0.685c1.798-0.125,3.604-0.536,5.345-1.095c1.74-0.567,3.431-1.294,4.981-2.172
				c0.771-0.438,1.514-0.919,2.146-1.436c0.26-0.214,0.75-0.643,1.211-0.948c0.447-0.31,0.905-0.573,1.368-0.813
				c3.713-1.848,7.655-2.415,11.498-2.234c3.823,0.208,7.676,1.317,10.714,3.672c3.068,2.319,4.986,5.788,5.737,9.175
				c0.755,3.418,0.617,6.741,0.175,9.8c-0.066,0.396-0.102,0.734-0.191,1.171c-0.078,0.369-0.13,0.704-0.246,1.118
				c-0.203,0.806-0.433,1.53-0.73,2.249c-0.574,1.432-1.323,2.755-2.214,3.927c-1.766,2.361-4.163,4.047-6.639,4.9
				c-2.431,0.857-4.956,1.028-7.132,0.721c-2.196-0.321-4.103-1.029-5.694-1.855c-3.183-1.679-5.272-3.55-6.628-4.851
				c-0.696-0.635-1.162-1.191-1.507-1.532c-0.335-0.351-0.508-0.532-0.508-0.532l0.212-0.212c0,0,0.188,0.163,0.553,0.478
				c0.374,0.304,0.884,0.806,1.63,1.364c1.435,1.163,3.634,2.837,6.764,4.179c1.566,0.644,3.36,1.211,5.351,1.381
				c2,0.154,4.128-0.111,6.249-0.99c2.076-0.857,3.997-2.398,5.449-4.448c0.723-1.026,1.325-2.181,1.772-3.424
				c0.231-0.612,0.413-1.281,0.547-1.899c0.078-0.293,0.13-0.688,0.192-1.046c0.051-0.29,0.086-0.694,0.131-1.038
				c0.316-2.86,0.307-5.88-0.441-8.757c-0.71-2.872-2.274-5.555-4.738-7.364c-2.45-1.812-5.643-2.808-8.985-2.994
				c-1.672-0.097-3.383,0.012-5.073,0.288c-1.685,0.277-3.37,0.75-4.863,1.482c-0.371,0.183-0.731,0.381-1.06,0.6
				c-0.327,0.21-0.552,0.395-1.023,0.775c-0.841,0.659-1.708,1.188-2.596,1.671c-1.775,0.96-3.633,1.711-5.564,2.3
				c-1.932,0.577-3.939,1-6.029,1.105c-2.074,0.111-4.294-0.116-6.358-1.112c-1.023-0.5-1.976-1.224-2.716-2.127
				c-0.174-0.233-0.36-0.459-0.518-0.701l-0.437-0.746l-0.365-0.827c-0.13-0.29-0.163-0.487-0.249-0.735
				c-0.316-1.081-0.514-2.059-0.606-3.164c-0.074-1.083-0.023-2.241,0.396-3.396c0.414-1.156,1.428-2.236,2.639-2.622
				c1.197-0.412,2.398-0.323,3.48-0.039c1.088,0.301,2.098,0.784,2.979,1.586c0.878,0.863,1.332,1.834,1.731,2.82
				c1.443,3.975,1.39,8.175,0.649,12.154c-0.798,3.967-2.618,7.808-5.61,10.574c-1.459,1.392-3.272,2.446-5.201,3.03
				c-1.938,0.568-3.961,0.729-5.936,0.572c-3.948-0.359-7.719-1.787-10.89-4.022c-1.579-1.128-3.023-2.463-4.16-4.076
				c-0.564-0.817-1.042-1.658-1.416-2.672l-0.207-0.649c-0.091-0.31-0.124-0.49-0.188-0.742c-0.106-0.472-0.195-0.951-0.251-1.442
				c-0.112-0.977-0.125-2,0.117-3.037c0.229-1.026,0.737-2.088,1.581-2.875c0.831-0.794,1.927-1.283,3.012-1.409
				c1.088-0.136,2.174,0.007,3.175,0.403c1.013,0.388,1.909,1.125,2.541,1.882c0.646,0.783,1.119,1.658,1.461,2.55
				c0.677,1.792,0.852,3.649,0.716,5.421c-0.32,3.545-1.886,6.786-4.182,9.127c-0.577,0.58-1.179,1.128-1.834,1.588
				c-0.312,0.239-0.672,0.459-1.017,0.679c-0.355,0.213-0.597,0.343-0.994,0.557c-1.352,0.688-2.722,1.222-4.081,1.643
				c-2.718,0.847-5.397,1.214-7.917,1.272c-2.52,0.053-4.905-0.225-7.024-0.919c-2.1-0.681-4.003-1.825-5.078-3.471
				c-0.139-0.199-0.255-0.435-0.376-0.646c-0.107-0.21-0.17-0.393-0.256-0.586c-0.175-0.462-0.277-0.828-0.382-1.239
				c-0.196-0.799-0.267-1.587-0.218-2.316c0.085-1.473,0.74-2.636,1.422-3.339c0.691-0.714,1.356-1.074,1.801-1.292
				c0.45-0.212,0.706-0.281,0.706-0.281L37.263,410.487z"/>
		</g>
		<g id="XMLID_34_">
			<path id="XMLID_85_" style="fill:#FFFFFF;" d="M214.099,410.204c0,0,0.256,0.068,0.706,0.281c0.445,0.217,1.11,0.578,1.801,1.292
				c0.682,0.703,1.336,1.866,1.422,3.339c0.049,0.729-0.022,1.516-0.218,2.316c-0.105,0.411-0.207,0.777-0.382,1.239
				c-0.085,0.193-0.149,0.377-0.256,0.586c-0.121,0.211-0.237,0.447-0.376,0.646c-1.075,1.646-2.978,2.79-5.078,3.471
				c-2.118,0.694-4.504,0.972-7.023,0.919c-2.52-0.058-5.199-0.424-7.917-1.272c-1.359-0.421-2.729-0.955-4.081-1.643
				c-0.397-0.214-0.639-0.343-0.994-0.557c-0.345-0.22-0.705-0.44-1.017-0.679c-0.655-0.46-1.257-1.008-1.834-1.588
				c-2.296-2.341-3.863-5.582-4.182-9.127c-0.136-1.772,0.039-3.629,0.716-5.421c0.341-0.892,0.814-1.767,1.461-2.55
				c0.632-0.757,1.528-1.494,2.541-1.882c1.002-0.396,2.088-0.539,3.175-0.403c1.085,0.126,2.181,0.615,3.012,1.409
				c0.844,0.787,1.352,1.849,1.581,2.875c0.242,1.037,0.229,2.06,0.117,3.037c-0.055,0.49-0.144,0.97-0.251,1.442
				c-0.064,0.251-0.096,0.432-0.188,0.742l-0.207,0.649c-0.374,1.014-0.852,1.855-1.416,2.672c-1.136,1.612-2.581,2.948-4.16,4.076
				c-3.171,2.235-6.942,3.663-10.89,4.022c-1.975,0.156-3.998-0.005-5.936-0.572c-1.928-0.584-3.742-1.638-5.201-3.03
				c-2.992-2.766-4.812-6.607-5.61-10.574c-0.741-3.979-0.794-8.179,0.648-12.154c0.399-0.986,0.853-1.957,1.731-2.82
				c0.882-0.802,1.892-1.285,2.979-1.586c1.082-0.283,2.283-0.373,3.48,0.039c1.211,0.386,2.224,1.467,2.639,2.622
				c0.419,1.156,0.47,2.313,0.396,3.396c-0.092,1.105-0.29,2.083-0.606,3.164c-0.086,0.248-0.119,0.445-0.249,0.735l-0.365,0.827
				l-0.436,0.746c-0.157,0.242-0.344,0.468-0.518,0.701c-0.74,0.902-1.694,1.627-2.716,2.127c-2.064,0.996-4.284,1.223-6.358,1.112
				c-2.09-0.106-4.097-0.528-6.029-1.105c-1.931-0.589-3.789-1.341-5.564-2.3c-0.888-0.483-1.755-1.012-2.596-1.671
				c-0.471-0.38-0.696-0.565-1.023-0.775c-0.329-0.219-0.689-0.417-1.06-0.6c-1.493-0.732-3.178-1.204-4.863-1.482
				c-1.69-0.276-3.4-0.386-5.073-0.288c-3.342,0.186-6.535,1.182-8.986,2.994c-2.465,1.809-4.028,4.492-4.738,7.364
				c-0.748,2.876-0.757,5.896-0.441,8.757c0.045,0.344,0.079,0.748,0.131,1.038c0.062,0.357,0.114,0.753,0.192,1.046
				c0.133,0.618,0.315,1.288,0.546,1.899c0.447,1.243,1.049,2.397,1.772,3.424c1.452,2.049,3.372,3.59,5.449,4.448
				c2.121,0.88,4.25,1.144,6.249,0.99c1.991-0.17,3.785-0.737,5.351-1.381c3.13-1.342,5.33-3.016,6.764-4.179
				c0.745-0.557,1.255-1.06,1.63-1.364c0.365-0.315,0.553-0.478,0.553-0.478l0.212,0.212c0,0-0.173,0.181-0.508,0.532
				c-0.345,0.341-0.811,0.897-1.507,1.532c-1.356,1.301-3.445,3.172-6.628,4.851c-1.591,0.826-3.499,1.534-5.695,1.855
				c-2.176,0.307-4.701,0.136-7.132-0.721c-2.475-0.854-4.872-2.54-6.639-4.9c-0.89-1.172-1.64-2.495-2.214-3.927
				c-0.297-0.719-0.527-1.443-0.73-2.249c-0.116-0.414-0.168-0.749-0.246-1.118c-0.09-0.437-0.126-0.775-0.192-1.171
				c-0.442-3.059-0.58-6.382,0.175-9.8c0.751-3.387,2.669-6.856,5.737-9.175c3.038-2.355,6.891-3.464,10.714-3.672
				c3.843-0.18,7.785,0.386,11.498,2.234c0.462,0.24,0.92,0.503,1.368,0.813c0.461,0.304,0.951,0.733,1.211,0.948
				c0.632,0.518,1.375,0.998,2.146,1.436c1.55,0.879,3.241,1.605,4.981,2.172c1.741,0.559,3.547,0.971,5.345,1.095
				c1.79,0.135,3.598-0.01,5.107-0.685c1.507-0.67,2.632-1.894,3.161-3.582c0.538-1.674,0.924-3.654,0.481-5.129
				c-0.238-0.72-0.677-1.251-1.362-1.533c-0.68-0.289-1.562-0.306-2.406-0.127c-0.84,0.176-1.698,0.548-2.315,1.068
				c-0.587,0.503-1.074,1.357-1.44,2.198c-0.734,1.731-1.11,3.662-1.266,5.591c-0.15,1.936-0.054,3.897,0.293,5.809
				c0.654,3.819,2.396,7.493,5.182,10.103c2.758,2.669,6.727,3.681,10.425,3.208c3.717-0.417,7.239-1.98,10.067-4.197
				c1.409-1.113,2.659-2.403,3.571-3.848c0.449-0.714,0.827-1.502,1.056-2.207l0.176-0.658l0.112-0.584
				c0.07-0.415,0.123-0.828,0.146-1.235c0.123-1.622-0.263-3.182-1.22-3.96c-0.921-0.794-2.42-0.904-3.599-0.384
				c-1.117,0.473-1.991,1.686-2.486,2.996c-0.499,1.332-0.637,2.82-0.527,4.257c0.219,2.896,1.476,5.613,3.344,7.565
				c0.469,0.488,0.965,0.942,1.496,1.342c0.263,0.216,0.523,0.379,0.781,0.561c0.258,0.17,0.645,0.394,0.874,0.526
				c1.182,0.647,2.412,1.171,3.646,1.595c2.473,0.838,4.95,1.304,7.283,1.465c2.334,0.15,4.539-0.005,6.462-0.496
				c1.919-0.491,3.538-1.391,4.507-2.613c0.124-0.149,0.208-0.298,0.316-0.443c0.102-0.159,0.196-0.366,0.292-0.543
				c0.142-0.301,0.296-0.695,0.409-1.03c0.232-0.695,0.348-1.371,0.357-1.996c0.033-1.261-0.442-2.278-0.982-2.967
				c-0.543-0.7-1.125-1.11-1.519-1.356c-0.402-0.246-0.624-0.331-0.624-0.331L214.099,410.204z"/>
		</g>
	</g>
	<g id="XMLID_53_">
		<g id="XMLID_21_">
			<g id="XMLID_35_">
				<path id="XMLID_83_" style="fill:#FFFFFF;" d="M354.211,403.602c0,0-0.15,0.534-0.26,1.557
					c-0.089,1.009-0.203,2.564,0.358,4.342c0.292,0.873,0.775,1.789,1.577,2.507c0.799,0.698,1.948,1.18,3.1,1.405
					c0.333,0.038,0.672,0.077,1.016,0.117c0.326,0.009,0.606-0.053,0.913-0.066c0.6-0.092,1.252-0.274,1.815-0.614
					c1.154-0.642,2.11-1.764,2.706-3.139c1.205-2.759,1.065-6.373-0.461-9.479c-0.194-0.352-0.39-0.707-0.587-1.065
					c-0.29-0.382-0.582-0.766-0.875-1.153c-0.285-0.428-0.607-0.695-0.92-0.982c-0.328-0.283-0.587-0.604-0.963-0.87
					c-0.761-0.52-1.473-1.112-2.337-1.523c-0.421-0.216-0.819-0.478-1.263-0.663c-0.446-0.18-0.895-0.361-1.345-0.542
					c-3.632-1.425-7.799-1.772-11.915-1.462c-4.132,0.334-8.265,1.489-12.06,3.339c-0.474,0.232-0.961,0.44-1.429,0.684
					l-1.367,0.804l-1.367,0.801l-1.289,0.92c-1.713,1.17-3.426,2.621-5.151,3.936c-3.431,2.681-7.011,5.176-10.591,7.299
					c-3.646,2.175-7.365,3.882-11.118,4.989c-3.736,1.12-7.503,1.516-10.917,1.147c-3.435-0.323-6.393-1.568-8.774-2.901
					c-0.583-0.361-1.148-0.711-1.693-1.048c-0.549-0.329-0.992-0.768-1.459-1.127c-0.456-0.373-0.893-0.73-1.311-1.072
					c-0.398-0.362-0.741-0.748-1.085-1.092c-0.666-0.71-1.312-1.291-1.768-1.893c-0.46-0.595-0.852-1.101-1.169-1.512
					c-0.632-0.817-0.969-1.253-0.969-1.253s0.38,0.399,1.093,1.148c0.355,0.373,0.793,0.832,1.307,1.372
					c0.512,0.54,1.203,1.058,1.909,1.698c0.365,0.307,0.729,0.655,1.147,0.973c0.434,0.297,0.888,0.607,1.361,0.93
					c0.483,0.306,0.939,0.694,1.487,0.974c0.543,0.285,1.106,0.581,1.687,0.886c2.362,1.101,5.187,2.06,8.377,2.199
					c3.179,0.157,6.63-0.395,10.103-1.566c3.469-1.171,6.981-2.977,10.386-5.09c3.487-2.156,6.816-4.692,10.216-7.346
					c1.712-1.325,3.321-2.722,5.217-4.05l1.384-1.001l1.469-0.88l1.473-0.879c0.505-0.267,1.028-0.504,1.543-0.753
					c4.132-1.973,8.629-3.193,13.139-3.521c4.502-0.324,9.048,0.225,13.094,1.894c0.502,0.217,1.001,0.433,1.498,0.649
					c0.494,0.222,0.951,0.528,1.424,0.788c0.965,0.488,1.791,1.207,2.637,1.853c0.421,0.328,0.796,0.781,1.185,1.166
					c0.389,0.401,0.782,0.803,1.021,1.201c0.278,0.398,0.554,0.794,0.829,1.187l0.078,0.117l0.022,0.043l0.044,0.087l0.088,0.174
					l0.175,0.347l0.346,0.69c1.675,3.752,1.612,7.946-0.01,11.168c-0.806,1.602-2.06,2.969-3.599,3.684
					c-0.761,0.378-1.564,0.552-2.37,0.613c-0.404-0.001-0.829,0.023-1.19-0.017c-0.34-0.064-0.676-0.126-1.006-0.188
					c-1.452-0.383-2.64-1-3.535-1.914c-0.868-0.921-1.314-2.002-1.547-2.968c-0.449-1.967-0.127-3.518,0.054-4.527
					C354.007,404.117,354.211,403.602,354.211,403.602z"/>
			</g>
			<g id="XMLID_37_">
				<path id="XMLID_47_" style="fill:#FFFFFF;" d="M315.653,406.132c0,0-0.019,0.076-0.055,0.223
					c-0.035,0.159-0.088,0.395-0.156,0.703c-0.129,0.624-0.303,1.552-0.455,2.744c-0.15,1.191-0.278,2.648-0.278,4.31
					c0.007,1.658,0.139,3.533,0.621,5.47c0.479,1.926,1.338,3.932,2.854,5.523c1.498,1.6,3.676,2.689,6.152,3.102
					c1.233,0.225,2.534,0.283,3.855,0.248c1.33-0.044,2.646-0.177,3.926-0.512c2.56-0.62,4.945-2.092,6.281-4.385
					c1.368-2.269,1.655-5.127,1.223-7.773c-0.443-2.657-1.567-5.198-3.246-7.146c-0.838-0.97-1.831-1.783-2.934-2.297
					c-1.099-0.52-2.312-0.709-3.456-0.525c-2.266,0.475-4.407,1.69-5.496,3.437c-1.102,1.776-1.008,3.867-0.512,5.482
					c0.496,1.643,1.305,2.953,2.1,3.899c0.795,0.952,1.586,1.558,2.183,1.851c0.295,0.154,0.542,0.231,0.709,0.269
					c0.169,0.035,0.256,0.052,0.256,0.052s-0.088-0.015-0.258-0.044c-0.168-0.033-0.42-0.102-0.722-0.247
					c-0.611-0.276-1.43-0.86-2.266-1.797c-0.836-0.932-1.701-2.228-2.267-3.901c-0.274-0.835-0.467-1.771-0.451-2.774
					c0.023-0.999,0.273-2.063,0.824-3.032c0.553-0.969,1.408-1.796,2.401-2.443c0.485-0.328,1.054-0.62,1.594-0.854
					c0.527-0.241,1.162-0.476,1.787-0.588c1.272-0.249,2.662-0.079,3.908,0.462c1.252,0.535,2.366,1.393,3.308,2.411
					c1.884,2.049,3.166,4.707,3.743,7.564c0.558,2.841,0.385,6.025-1.121,8.74c-0.743,1.344-1.794,2.535-3.044,3.423
					c-1.243,0.902-2.648,1.526-4.074,1.938c-1.426,0.423-2.895,0.618-4.309,0.71c-1.425,0.085-2.857,0.069-4.265-0.138
					c-2.808-0.366-5.55-1.58-7.476-3.514c-1.948-1.918-3.036-4.303-3.656-6.485c-0.623-2.202-0.829-4.266-0.898-6.077
					c-0.059-1.814,0.029-3.386,0.148-4.675c0.122-1.289,0.276-2.295,0.395-2.985c0.119-0.687,0.21-1.08,0.21-1.08L315.653,406.132z"
					/>
			</g>
		</g>
		<g id="XMLID_42_">
			<g id="XMLID_46_">
				<path id="XMLID_44_" style="fill:#FFFFFF;" d="M381.707,403.602c0,0,0.204,0.515,0.42,1.532c0.181,1.009,0.503,2.56,0.054,4.527
					c-0.234,0.966-0.68,2.047-1.547,2.968c-0.895,0.914-2.082,1.531-3.535,1.914c-0.33,0.061-0.665,0.124-1.006,0.188
					c-0.361,0.04-0.786,0.016-1.19,0.017c-0.805-0.061-1.608-0.236-2.37-0.613c-1.539-0.715-2.792-2.083-3.599-3.684
					c-1.622-3.222-1.686-7.416-0.01-11.168l0.346-0.69l0.175-0.347l0.088-0.174l0.044-0.087l0.022-0.043l0.078-0.117
					c0.275-0.393,0.551-0.789,0.829-1.187c0.239-0.398,0.632-0.799,1.021-1.201c0.389-0.385,0.764-0.839,1.185-1.166
					c0.846-0.646,1.673-1.364,2.637-1.853c0.472-0.26,0.93-0.566,1.424-0.788c0.497-0.215,0.997-0.432,1.498-0.649
					c4.046-1.669,8.592-2.218,13.094-1.894c4.51,0.328,9.008,1.549,13.139,3.521c0.516,0.249,1.038,0.486,1.543,0.753l1.473,0.879
					l1.47,0.88l1.384,1.001c1.896,1.329,3.505,2.725,5.217,4.05c3.399,2.655,6.729,5.19,10.216,7.346
					c3.404,2.113,6.917,3.919,10.386,5.09c3.473,1.171,6.924,1.722,10.103,1.566c3.19-0.138,6.015-1.097,8.377-2.199
					c0.581-0.305,1.144-0.601,1.687-0.886c0.548-0.28,1.004-0.669,1.487-0.974c0.473-0.323,0.927-0.634,1.361-0.93
					c0.418-0.319,0.782-0.666,1.147-0.973c0.707-0.639,1.397-1.158,1.909-1.698c0.515-0.54,0.953-1,1.307-1.372
					c0.713-0.749,1.093-1.148,1.093-1.148s-0.337,0.436-0.969,1.253c-0.317,0.41-0.709,0.917-1.169,1.512
					c-0.456,0.601-1.102,1.183-1.768,1.893c-0.344,0.344-0.687,0.73-1.085,1.092c-0.418,0.342-0.855,0.699-1.311,1.072
					c-0.467,0.359-0.911,0.798-1.459,1.127c-0.545,0.337-1.109,0.687-1.693,1.048c-2.381,1.333-5.339,2.578-8.774,2.901
					c-3.414,0.369-7.18-0.027-10.917-1.147c-3.753-1.107-7.472-2.814-11.118-4.989c-3.579-2.122-7.16-4.618-10.591-7.299
					c-1.726-1.315-3.438-2.766-5.151-3.936l-1.289-0.92l-1.367-0.801l-1.367-0.804c-0.468-0.244-0.955-0.452-1.429-0.684
					c-3.795-1.85-7.929-3.004-12.06-3.339c-4.115-0.311-8.282,0.037-11.915,1.462c-0.45,0.182-0.899,0.362-1.345,0.542
					c-0.444,0.185-0.841,0.446-1.263,0.663c-0.864,0.411-1.576,1.003-2.337,1.523c-0.376,0.266-0.635,0.586-0.963,0.87
					c-0.313,0.287-0.635,0.554-0.92,0.982c-0.294,0.387-0.585,0.771-0.875,1.153c-0.197,0.357-0.393,0.712-0.587,1.065
					c-1.525,3.105-1.666,6.72-0.461,9.479c0.596,1.375,1.552,2.497,2.706,3.139c0.563,0.34,1.215,0.522,1.815,0.614
					c0.307,0.014,0.587,0.075,0.913,0.066c0.344-0.039,0.683-0.078,1.016-0.117c1.152-0.224,2.301-0.707,3.1-1.405
					c0.803-0.719,1.286-1.635,1.577-2.507c0.56-1.778,0.447-3.333,0.358-4.342C381.857,404.137,381.707,403.602,381.707,403.602z"/>
			</g>
			<g id="XMLID_43_">
				<path id="XMLID_32_" style="fill:#FFFFFF;" d="M423.18,405.424c0,0,0.091,0.393,0.21,1.08c0.119,0.69,0.274,1.696,0.395,2.985
					c0.119,1.289,0.207,2.861,0.148,4.675c-0.068,1.811-0.275,3.875-0.898,6.077c-0.62,2.181-1.708,4.566-3.656,6.485
					c-1.927,1.935-4.669,3.148-7.477,3.514c-1.408,0.208-2.839,0.223-4.265,0.138c-1.415-0.092-2.883-0.287-4.309-0.71
					c-1.426-0.412-2.831-1.036-4.074-1.938c-1.25-0.889-2.301-2.08-3.044-3.423c-1.506-2.715-1.678-5.899-1.121-8.74
					c0.577-2.857,1.859-5.515,3.743-7.564c0.942-1.019,2.056-1.877,3.308-2.411c1.245-0.541,2.636-0.711,3.908-0.462
					c0.625,0.112,1.26,0.347,1.787,0.588c0.54,0.233,1.109,0.526,1.594,0.854c0.994,0.647,1.849,1.474,2.401,2.443
					c0.551,0.969,0.802,2.033,0.824,3.032c0.016,1.003-0.176,1.938-0.451,2.774c-0.566,1.672-1.432,2.969-2.267,3.901
					c-0.836,0.937-1.654,1.522-2.266,1.797c-0.302,0.145-0.553,0.214-0.722,0.247c-0.17,0.029-0.258,0.044-0.258,0.044
					s0.087-0.018,0.256-0.052c0.167-0.039,0.414-0.115,0.709-0.269c0.597-0.293,1.388-0.899,2.183-1.851
					c0.794-0.946,1.604-2.255,2.1-3.899c0.496-1.615,0.59-3.706-0.512-5.482c-1.089-1.747-3.23-2.962-5.496-3.437
					c-1.144-0.183-2.356,0.006-3.456,0.525c-1.104,0.514-2.096,1.327-2.934,2.297c-1.679,1.948-2.803,4.488-3.246,7.146
					c-0.432,2.647-0.146,5.504,1.223,7.773c1.336,2.292,3.721,3.765,6.281,4.385c1.28,0.335,2.596,0.468,3.926,0.512
					c1.321,0.035,2.622-0.023,3.855-0.248c2.476-0.413,4.654-1.501,6.152-3.102c1.516-1.591,2.375-3.597,2.855-5.523
					c0.481-1.937,0.613-3.812,0.62-5.47c0-1.662-0.128-3.119-0.278-4.31c-0.152-1.192-0.326-2.12-0.455-2.744
					c-0.068-0.308-0.121-0.544-0.156-0.703c-0.037-0.147-0.055-0.223-0.055-0.223L423.18,405.424z"/>
			</g>
		</g>
	</g>
	
		<text id="XMLID_4_" transform="matrix(1 0 0 1 137.4952 64.3859)" style="fill:#FFFFFF; font-family:'CACChampagne'; font-size:41.4828px;">Wedding Ornament</text>
</g>
<g id="DESIGNED_BY_FREEPIK">
	<g id="XMLID_11896_">
		<g id="XMLID_11939_">
			<path id="XMLID_11968_" style="fill:#FFFFFF;" d="M186.001,474.961v-0.147c-0.2,0.229-0.397,0.415-0.592,0.558
				c-0.194,0.144-0.405,0.253-0.633,0.327c-0.227,0.076-0.475,0.112-0.744,0.112c-0.357,0-0.686-0.075-0.99-0.226
				c-0.303-0.151-0.566-0.367-0.787-0.646c-0.222-0.28-0.39-0.608-0.504-0.986c-0.114-0.378-0.172-0.787-0.172-1.226
				c0-0.93,0.227-1.656,0.682-2.176c0.454-0.519,1.052-0.779,1.793-0.779c0.429,0,0.79,0.074,1.085,0.22
				c0.294,0.147,0.581,0.374,0.861,0.679v-2.197c0-0.305,0.061-0.536,0.183-0.692c0.121-0.156,0.295-0.234,0.52-0.234
				c0.225,0,0.398,0.072,0.52,0.215c0.122,0.144,0.183,0.355,0.183,0.635v6.563c0,0.284-0.065,0.496-0.196,0.638
				c-0.131,0.141-0.299,0.212-0.507,0.212c-0.203,0-0.372-0.073-0.505-0.22C186.068,475.443,186.001,475.233,186.001,474.961z
				 M183.074,472.775c0,0.404,0.063,0.747,0.188,1.03c0.126,0.284,0.297,0.497,0.515,0.64c0.218,0.144,0.456,0.216,0.714,0.216
				c0.262,0,0.501-0.068,0.717-0.205c0.216-0.136,0.389-0.345,0.518-0.626c0.129-0.282,0.193-0.634,0.193-1.055
				c0-0.396-0.064-0.737-0.193-1.023c-0.129-0.285-0.303-0.503-0.523-0.654c-0.22-0.15-0.461-0.225-0.722-0.225
				c-0.272,0-0.516,0.077-0.73,0.231c-0.214,0.154-0.381,0.376-0.499,0.665C183.133,472.058,183.074,472.393,183.074,472.775z"/>
			<path id="XMLID_11965_" style="fill:#FFFFFF;" d="M192.564,473.151h-2.911c0.004,0.337,0.072,0.636,0.205,0.893
				c0.132,0.258,0.309,0.453,0.529,0.583c0.22,0.131,0.463,0.196,0.728,0.196c0.178,0,0.34-0.02,0.488-0.062
				c0.147-0.043,0.29-0.107,0.428-0.197c0.138-0.089,0.265-0.184,0.381-0.286c0.116-0.102,0.266-0.24,0.452-0.415
				c0.076-0.065,0.186-0.098,0.328-0.098c0.152,0,0.276,0.043,0.37,0.126c0.094,0.084,0.142,0.201,0.142,0.354
				c0,0.135-0.053,0.291-0.158,0.471c-0.106,0.18-0.265,0.353-0.477,0.518c-0.213,0.165-0.479,0.302-0.802,0.411
				c-0.321,0.109-0.691,0.164-1.109,0.164c-0.955,0-1.699-0.273-2.229-0.818c-0.531-0.545-0.796-1.285-0.796-2.218
				c0-0.44,0.065-0.848,0.196-1.224c0.131-0.377,0.322-0.699,0.572-0.968c0.251-0.269,0.56-0.475,0.927-0.619
				c0.367-0.143,0.774-0.215,1.221-0.215c0.581,0,1.08,0.122,1.496,0.368c0.417,0.245,0.729,0.562,0.935,0.951
				c0.207,0.389,0.311,0.786,0.311,1.188c0,0.375-0.107,0.617-0.321,0.729C193.255,473.095,192.953,473.151,192.564,473.151z
				 M189.653,472.306h2.699c-0.036-0.509-0.174-0.89-0.412-1.142c-0.238-0.253-0.551-0.379-0.94-0.379
				c-0.371,0-0.675,0.128-0.913,0.384C189.848,471.425,189.704,471.804,189.653,472.306z"/>
			<path id="XMLID_11962_" style="fill:#FFFFFF;" d="M199.345,473.864c0,0.411-0.1,0.763-0.3,1.055
				c-0.2,0.293-0.495,0.515-0.886,0.665c-0.39,0.151-0.866,0.226-1.425,0.226c-0.534,0-0.992-0.082-1.374-0.245
				c-0.381-0.163-0.663-0.368-0.845-0.613c-0.182-0.246-0.273-0.492-0.273-0.739c0-0.164,0.058-0.303,0.175-0.419
				c0.116-0.116,0.263-0.174,0.442-0.174c0.156,0,0.275,0.038,0.359,0.114c0.084,0.076,0.164,0.184,0.24,0.321
				c0.153,0.266,0.336,0.463,0.548,0.595c0.213,0.131,0.502,0.196,0.87,0.196c0.298,0,0.542-0.067,0.733-0.199
				c0.19-0.133,0.286-0.285,0.286-0.456c0-0.262-0.099-0.452-0.297-0.572c-0.198-0.12-0.524-0.235-0.979-0.344
				c-0.512-0.127-0.929-0.261-1.251-0.401c-0.322-0.139-0.579-0.324-0.771-0.553c-0.193-0.229-0.289-0.511-0.289-0.845
				c0-0.298,0.089-0.579,0.267-0.845c0.178-0.265,0.441-0.476,0.788-0.634c0.346-0.159,0.765-0.238,1.256-0.238
				c0.385,0,0.732,0.04,1.038,0.121c0.308,0.079,0.564,0.187,0.769,0.322c0.205,0.134,0.361,0.283,0.469,0.446
				c0.107,0.164,0.161,0.323,0.161,0.48c0,0.17-0.057,0.31-0.171,0.42c-0.114,0.108-0.277,0.164-0.488,0.164
				c-0.153,0-0.282-0.044-0.39-0.132c-0.107-0.087-0.23-0.217-0.368-0.392c-0.113-0.145-0.245-0.262-0.398-0.349
				c-0.153-0.087-0.36-0.13-0.622-0.13c-0.269,0-0.492,0.057-0.67,0.172c-0.178,0.114-0.267,0.256-0.267,0.427
				c0,0.157,0.065,0.285,0.196,0.384c0.131,0.1,0.307,0.183,0.529,0.248c0.222,0.065,0.526,0.145,0.916,0.239
				c0.461,0.113,0.838,0.248,1.131,0.404c0.292,0.156,0.514,0.341,0.666,0.554C199.27,473.35,199.345,473.592,199.345,473.864z"/>
			<path id="XMLID_11959_" style="fill:#FFFFFF;" d="M200.865,469.068c-0.207,0-0.384-0.064-0.531-0.191
				c-0.147-0.127-0.221-0.307-0.221-0.54c0-0.211,0.075-0.384,0.226-0.521c0.151-0.137,0.326-0.204,0.526-0.204
				c0.193,0,0.363,0.062,0.512,0.185c0.149,0.124,0.224,0.303,0.224,0.54c0,0.229-0.073,0.408-0.219,0.537
				C201.237,469.003,201.065,469.068,200.865,469.068z M201.601,470.605v4.301c0,0.298-0.071,0.524-0.213,0.676
				c-0.142,0.152-0.321,0.229-0.54,0.229c-0.218,0-0.395-0.078-0.532-0.234c-0.137-0.156-0.204-0.38-0.204-0.671v-4.258
				c0-0.294,0.068-0.516,0.204-0.665c0.136-0.149,0.313-0.224,0.532-0.224c0.218,0,0.398,0.075,0.54,0.224
				C201.53,470.133,201.601,470.34,201.601,470.605z"/>
			<path id="XMLID_11955_" style="fill:#FFFFFF;" d="M208.12,470.85v4.323c0,0.494-0.053,0.92-0.159,1.276
				c-0.105,0.355-0.274,0.65-0.507,0.883c-0.233,0.232-0.537,0.405-0.913,0.517c-0.376,0.113-0.844,0.169-1.404,0.169
				c-0.512,0-0.97-0.072-1.374-0.215c-0.403-0.144-0.714-0.329-0.932-0.556c-0.218-0.227-0.327-0.461-0.327-0.701
				c0-0.182,0.062-0.33,0.186-0.444c0.123-0.115,0.273-0.172,0.447-0.172c0.218,0,0.409,0.096,0.573,0.289
				c0.08,0.098,0.162,0.198,0.248,0.298c0.085,0.1,0.18,0.186,0.284,0.257c0.104,0.07,0.228,0.123,0.373,0.158
				c0.146,0.034,0.313,0.051,0.502,0.051c0.385,0,0.684-0.053,0.897-0.161c0.213-0.107,0.362-0.257,0.447-0.45
				c0.085-0.192,0.135-0.398,0.15-0.618s0.025-0.573,0.033-1.061c-0.229,0.321-0.493,0.564-0.793,0.731
				c-0.3,0.167-0.657,0.251-1.071,0.251c-0.498,0-0.933-0.127-1.306-0.382c-0.372-0.255-0.659-0.61-0.858-1.068
				c-0.2-0.458-0.3-0.987-0.3-1.586c0-0.447,0.06-0.851,0.182-1.21c0.122-0.36,0.296-0.664,0.521-0.911
				c0.225-0.247,0.485-0.433,0.779-0.559c0.294-0.125,0.618-0.188,0.971-0.188c0.421,0,0.787,0.081,1.096,0.242
				c0.309,0.163,0.596,0.416,0.861,0.761v-0.202c0-0.258,0.063-0.457,0.191-0.6c0.128-0.141,0.291-0.212,0.491-0.212
				c0.287,0,0.478,0.094,0.572,0.281C208.073,470.228,208.12,470.498,208.12,470.85z M203.808,472.737
				c0,0.603,0.131,1.059,0.395,1.368c0.263,0.309,0.604,0.464,1.022,0.464c0.247,0,0.48-0.067,0.7-0.199
				c0.22-0.133,0.399-0.333,0.537-0.6c0.138-0.267,0.207-0.591,0.207-0.973c0-0.607-0.133-1.079-0.401-1.417
				c-0.267-0.338-0.619-0.507-1.055-0.507c-0.425,0-0.766,0.162-1.022,0.485C203.936,471.681,203.808,472.141,203.808,472.737z"/>
			<path id="XMLID_11953_" style="fill:#FFFFFF;" d="M210.485,470.583v0.18c0.261-0.345,0.548-0.599,0.858-0.761
				c0.311-0.161,0.668-0.243,1.071-0.243c0.393,0,0.743,0.086,1.052,0.257c0.309,0.171,0.54,0.412,0.692,0.724
				c0.099,0.182,0.162,0.379,0.191,0.589c0.029,0.211,0.044,0.48,0.044,0.807v2.769c0,0.298-0.068,0.524-0.205,0.676
				c-0.136,0.152-0.313,0.229-0.531,0.229c-0.222,0-0.402-0.078-0.54-0.234c-0.138-0.156-0.207-0.38-0.207-0.671v-2.48
				c0-0.49-0.069-0.866-0.205-1.126c-0.137-0.259-0.408-0.39-0.815-0.39c-0.265,0-0.507,0.079-0.725,0.237
				c-0.218,0.159-0.378,0.376-0.48,0.652c-0.073,0.222-0.109,0.636-0.109,1.243v1.864c0,0.301-0.07,0.529-0.21,0.679
				c-0.14,0.151-0.321,0.226-0.542,0.226c-0.215,0-0.391-0.078-0.529-0.234c-0.138-0.156-0.207-0.38-0.207-0.671v-4.301
				c0-0.284,0.062-0.496,0.185-0.636c0.124-0.14,0.293-0.21,0.507-0.21c0.131,0,0.249,0.031,0.355,0.093
				c0.105,0.062,0.19,0.155,0.253,0.277C210.454,470.254,210.485,470.405,210.485,470.583z"/>
			<path id="XMLID_11949_" style="fill:#FFFFFF;" d="M219.539,473.151h-2.911c0.004,0.337,0.072,0.636,0.205,0.893
				c0.133,0.258,0.309,0.453,0.529,0.583c0.219,0.131,0.462,0.196,0.727,0.196c0.178,0,0.341-0.02,0.488-0.062
				c0.146-0.043,0.289-0.107,0.428-0.197c0.138-0.089,0.265-0.184,0.382-0.286c0.116-0.102,0.266-0.24,0.452-0.415
				c0.076-0.065,0.185-0.098,0.327-0.098c0.153,0,0.276,0.043,0.371,0.126c0.094,0.084,0.142,0.201,0.142,0.354
				c0,0.135-0.052,0.291-0.158,0.471c-0.106,0.18-0.265,0.353-0.477,0.518c-0.213,0.165-0.479,0.302-0.801,0.411
				c-0.322,0.109-0.692,0.164-1.109,0.164c-0.956,0-1.699-0.273-2.23-0.818c-0.53-0.545-0.796-1.285-0.796-2.218
				c0-0.44,0.065-0.848,0.196-1.224c0.131-0.377,0.322-0.699,0.573-0.968c0.251-0.269,0.56-0.475,0.926-0.619
				c0.367-0.143,0.774-0.215,1.221-0.215c0.581,0,1.079,0.122,1.496,0.368c0.417,0.245,0.728,0.562,0.936,0.951
				c0.207,0.389,0.311,0.786,0.311,1.188c0,0.375-0.107,0.617-0.322,0.729C220.23,473.095,219.928,473.151,219.539,473.151z
				 M216.628,472.306h2.698c-0.036-0.509-0.174-0.89-0.411-1.142c-0.238-0.253-0.551-0.379-0.94-0.379
				c-0.371,0-0.676,0.128-0.914,0.384C216.823,471.425,216.679,471.804,216.628,472.306z"/>
			<path id="XMLID_11946_" style="fill:#FFFFFF;" d="M225.605,474.961v-0.147c-0.2,0.229-0.397,0.415-0.591,0.558
				c-0.195,0.144-0.405,0.253-0.632,0.327c-0.227,0.076-0.475,0.112-0.744,0.112c-0.357,0-0.686-0.075-0.99-0.226
				c-0.303-0.151-0.566-0.367-0.788-0.646c-0.222-0.28-0.39-0.608-0.504-0.986c-0.115-0.378-0.172-0.787-0.172-1.226
				c0-0.93,0.227-1.656,0.681-2.176c0.454-0.519,1.052-0.779,1.794-0.779c0.429,0,0.791,0.074,1.085,0.22
				c0.294,0.147,0.582,0.374,0.861,0.679v-2.197c0-0.305,0.061-0.536,0.183-0.692c0.121-0.156,0.295-0.234,0.521-0.234
				c0.225,0,0.398,0.072,0.52,0.215c0.122,0.144,0.183,0.355,0.183,0.635v6.563c0,0.284-0.065,0.496-0.196,0.638
				c-0.131,0.141-0.3,0.212-0.507,0.212c-0.204,0-0.372-0.073-0.504-0.22C225.672,475.443,225.605,475.233,225.605,474.961z
				 M222.678,472.775c0,0.404,0.062,0.747,0.188,1.03c0.125,0.284,0.297,0.497,0.516,0.64c0.218,0.144,0.456,0.216,0.713,0.216
				c0.262,0,0.501-0.068,0.717-0.205c0.216-0.136,0.389-0.345,0.518-0.626c0.129-0.282,0.194-0.634,0.194-1.055
				c0-0.396-0.064-0.737-0.194-1.023c-0.129-0.285-0.303-0.503-0.523-0.654c-0.22-0.15-0.461-0.225-0.722-0.225
				c-0.272,0-0.516,0.077-0.73,0.231c-0.214,0.154-0.38,0.376-0.499,0.665C222.737,472.058,222.678,472.393,222.678,472.775z"/>
			<path id="XMLID_11942_" style="fill:#FFFFFF;" d="M231.688,468.397v2.273c0.28-0.29,0.565-0.514,0.856-0.668
				c0.291-0.154,0.651-0.231,1.079-0.231c0.494,0,0.927,0.117,1.3,0.351c0.372,0.236,0.661,0.575,0.867,1.02
				c0.205,0.444,0.308,0.973,0.308,1.584c0,0.451-0.057,0.863-0.172,1.24c-0.115,0.376-0.281,0.702-0.499,0.978
				c-0.218,0.276-0.482,0.49-0.793,0.641c-0.311,0.151-0.654,0.226-1.028,0.226c-0.229,0-0.445-0.027-0.646-0.082
				c-0.202-0.054-0.374-0.126-0.515-0.215c-0.141-0.089-0.262-0.181-0.362-0.275c-0.1-0.094-0.232-0.236-0.395-0.425v0.147
				c0,0.28-0.067,0.491-0.202,0.636c-0.134,0.143-0.305,0.215-0.512,0.215c-0.211,0-0.379-0.071-0.504-0.215
				c-0.126-0.144-0.188-0.356-0.188-0.636v-6.498c0-0.301,0.061-0.53,0.182-0.684c0.122-0.154,0.292-0.231,0.51-0.231
				c0.229,0,0.405,0.073,0.529,0.22C231.626,467.915,231.688,468.124,231.688,468.397z M231.759,472.818
				c0,0.592,0.135,1.047,0.406,1.365c0.271,0.318,0.626,0.478,1.066,0.478c0.374,0,0.697-0.163,0.967-0.488
				c0.271-0.326,0.406-0.791,0.406-1.398c0-0.392-0.056-0.731-0.169-1.014c-0.113-0.284-0.272-0.503-0.479-0.657
				c-0.207-0.154-0.449-0.231-0.725-0.231c-0.283,0-0.536,0.077-0.758,0.231c-0.222,0.154-0.396,0.378-0.523,0.67
				C231.823,472.066,231.759,472.415,231.759,472.818z"/>
			<path id="XMLID_11940_" style="fill:#FFFFFF;" d="M238.028,475.996l0.136-0.333l-1.832-4.612
				c-0.112-0.265-0.169-0.458-0.169-0.578c0-0.127,0.033-0.245,0.098-0.354c0.066-0.109,0.155-0.197,0.27-0.262
				c0.115-0.066,0.234-0.099,0.357-0.099c0.214,0,0.376,0.068,0.485,0.205c0.109,0.136,0.205,0.331,0.289,0.586l1.259,3.663
				l1.194-3.407c0.094-0.275,0.18-0.492,0.256-0.648c0.076-0.156,0.157-0.262,0.242-0.316c0.085-0.055,0.206-0.082,0.363-0.082
				c0.113,0,0.221,0.03,0.325,0.09c0.103,0.06,0.183,0.141,0.24,0.243c0.056,0.101,0.085,0.208,0.085,0.321
				c-0.015,0.069-0.038,0.167-0.071,0.295c-0.033,0.127-0.072,0.257-0.12,0.387l-1.941,5.081c-0.168,0.447-0.331,0.797-0.491,1.051
				c-0.16,0.254-0.371,0.451-0.635,0.586c-0.264,0.137-0.619,0.205-1.066,0.205c-0.436,0-0.763-0.047-0.981-0.141
				c-0.219-0.095-0.327-0.268-0.327-0.518c0-0.17,0.051-0.303,0.156-0.395c0.103-0.093,0.257-0.14,0.46-0.14
				c0.08,0,0.159,0.011,0.235,0.034c0.094,0.021,0.176,0.033,0.245,0.033c0.171,0,0.305-0.025,0.404-0.077
				c0.098-0.051,0.186-0.138,0.264-0.265C237.836,476.424,237.926,476.24,238.028,475.996z"/>
		</g>
		<g id="XMLID_11913_">
			<path id="XMLID_11938_" style="fill:#FFFFFF;" d="M259.586,469.889h0.355v-0.447c0-0.467,0.057-0.836,0.176-1.112
				c0.117-0.275,0.319-0.474,0.601-0.6c0.281-0.124,0.668-0.187,1.157-0.187c0.872,0,1.304,0.211,1.304,0.639
				c0,0.137-0.045,0.255-0.138,0.353c-0.089,0.097-0.197,0.147-0.32,0.147c-0.057,0-0.16-0.011-0.303-0.034
				c-0.136-0.019-0.259-0.032-0.358-0.032c-0.268,0-0.44,0.081-0.52,0.238c-0.073,0.158-0.112,0.384-0.112,0.68v0.354h0.363
				c0.569,0,0.85,0.17,0.85,0.514c0,0.24-0.073,0.396-0.225,0.462c-0.15,0.066-0.358,0.098-0.625,0.098h-0.363v3.944
				c0,0.293-0.069,0.517-0.212,0.67c-0.138,0.156-0.318,0.233-0.541,0.233c-0.211,0-0.385-0.077-0.527-0.233
				c-0.14-0.154-0.209-0.377-0.209-0.67v-3.944h-0.41c-0.223,0-0.392-0.048-0.513-0.15c-0.12-0.098-0.181-0.229-0.181-0.389
				C258.838,470.065,259.088,469.889,259.586,469.889"/>
			<path id="XMLID_11937_" style="fill:#FFFFFF;" d="M264.459,473.662v1.244c0,0.301-0.076,0.527-0.215,0.677
				c-0.142,0.152-0.321,0.227-0.538,0.227c-0.219,0-0.395-0.075-0.532-0.23c-0.136-0.151-0.207-0.377-0.207-0.674v-4.145
				c0-0.669,0.241-1.004,0.723-1.004c0.249,0,0.427,0.077,0.536,0.234c0.109,0.157,0.169,0.387,0.182,0.693
				c0.177-0.307,0.358-0.536,0.544-0.693c0.191-0.157,0.438-0.234,0.752-0.234c0.315,0,0.615,0.077,0.91,0.234
				c0.296,0.157,0.443,0.365,0.443,0.623c0,0.181-0.063,0.333-0.187,0.448c-0.126,0.12-0.261,0.179-0.405,0.179
				c-0.057,0-0.19-0.036-0.397-0.103c-0.21-0.065-0.395-0.099-0.553-0.099c-0.218,0-0.397,0.059-0.535,0.171
				c-0.139,0.118-0.247,0.285-0.324,0.509c-0.074,0.227-0.126,0.497-0.156,0.806C264.472,472.836,264.459,473.215,264.459,473.662"
				/>
			<path id="XMLID_11933_" style="fill:#FFFFFF;" d="M271.301,473.15h-2.912c0.005,0.337,0.071,0.637,0.203,0.895
				c0.135,0.256,0.31,0.451,0.531,0.583c0.221,0.131,0.461,0.195,0.728,0.195c0.178,0,0.34-0.019,0.488-0.064
				c0.146-0.04,0.29-0.106,0.428-0.196c0.139-0.087,0.264-0.183,0.381-0.287c0.116-0.1,0.268-0.239,0.453-0.413
				c0.077-0.065,0.186-0.1,0.326-0.1c0.154,0,0.276,0.043,0.373,0.127c0.095,0.085,0.14,0.201,0.14,0.354
				c0,0.135-0.051,0.292-0.154,0.47c-0.108,0.182-0.266,0.354-0.48,0.52c-0.215,0.164-0.482,0.303-0.802,0.41
				c-0.321,0.109-0.692,0.164-1.109,0.164c-0.959,0-1.701-0.271-2.231-0.816c-0.53-0.546-0.799-1.287-0.799-2.22
				c0-0.44,0.067-0.849,0.199-1.225c0.129-0.378,0.32-0.698,0.573-0.969c0.25-0.27,0.557-0.475,0.925-0.619
				c0.366-0.143,0.773-0.215,1.221-0.215c0.58,0,1.079,0.123,1.496,0.37c0.415,0.243,0.731,0.561,0.935,0.949
				c0.208,0.391,0.311,0.785,0.311,1.191c0,0.372-0.108,0.614-0.322,0.726C271.991,473.094,271.69,473.15,271.301,473.15
				 M268.388,472.303h2.698c-0.036-0.508-0.171-0.89-0.41-1.14c-0.24-0.254-0.55-0.379-0.942-0.379c-0.37,0-0.675,0.126-0.914,0.384
				C268.584,471.424,268.438,471.802,268.388,472.303"/>
			<path id="XMLID_11930_" style="fill:#FFFFFF;" d="M277.492,473.15h-2.912c0.003,0.337,0.072,0.637,0.204,0.895
				c0.133,0.256,0.309,0.451,0.529,0.583c0.22,0.131,0.462,0.195,0.73,0.195c0.177,0,0.34-0.019,0.485-0.064
				c0.148-0.04,0.29-0.106,0.43-0.196c0.139-0.087,0.264-0.183,0.381-0.287c0.114-0.1,0.266-0.239,0.452-0.413
				c0.077-0.065,0.187-0.1,0.326-0.1c0.154,0,0.277,0.043,0.373,0.127c0.095,0.085,0.138,0.201,0.138,0.354
				c0,0.135-0.05,0.292-0.157,0.47c-0.102,0.182-0.261,0.354-0.476,0.52c-0.212,0.164-0.482,0.303-0.801,0.41
				c-0.32,0.109-0.693,0.164-1.11,0.164c-0.957,0-1.698-0.271-2.231-0.816c-0.53-0.546-0.797-1.287-0.797-2.22
				c0-0.44,0.067-0.849,0.199-1.225c0.13-0.378,0.321-0.698,0.572-0.969c0.25-0.27,0.558-0.475,0.927-0.619
				c0.366-0.143,0.775-0.215,1.222-0.215c0.579,0,1.078,0.123,1.5,0.37c0.413,0.243,0.726,0.561,0.93,0.949
				c0.206,0.391,0.313,0.785,0.313,1.191c0,0.372-0.11,0.614-0.322,0.726C278.181,473.094,277.88,473.15,277.492,473.15
				 M274.58,472.303h2.698c-0.036-0.508-0.174-0.89-0.41-1.14c-0.242-0.254-0.552-0.379-0.943-0.379
				c-0.37,0-0.675,0.126-0.914,0.384C274.774,471.424,274.628,471.802,274.58,472.303"/>
			<path id="XMLID_11926_" style="fill:#FFFFFF;" d="M280.752,470.594v0.178c0.279-0.345,0.571-0.598,0.875-0.76
				c0.298-0.163,0.642-0.245,1.023-0.245c0.456,0,0.881,0.119,1.267,0.354c0.385,0.238,0.688,0.583,0.912,1.037
				c0.224,0.456,0.336,0.993,0.336,1.615c0,0.457-0.064,0.879-0.193,1.263c-0.128,0.383-0.308,0.704-0.533,0.964
				c-0.226,0.258-0.491,0.46-0.798,0.6c-0.311,0.138-0.638,0.208-0.992,0.208c-0.424,0-0.783-0.085-1.07-0.257
				c-0.289-0.167-0.564-0.421-0.827-0.749v2.234c0,0.652-0.239,0.981-0.714,0.981c-0.281,0-0.464-0.084-0.558-0.252
				c-0.087-0.172-0.134-0.415-0.134-0.741v-6.424c0-0.284,0.061-0.493,0.184-0.636c0.123-0.137,0.294-0.209,0.508-0.209
				c0.212,0,0.382,0.072,0.514,0.215C280.687,470.117,280.752,470.322,280.752,470.594 M283.669,472.757
				c0-0.393-0.061-0.731-0.18-1.012c-0.12-0.283-0.286-0.498-0.497-0.647c-0.211-0.151-0.449-0.228-0.707-0.228
				c-0.41,0-0.757,0.163-1.038,0.484c-0.283,0.325-0.424,0.801-0.424,1.431c0,0.589,0.14,1.052,0.422,1.381
				c0.28,0.329,0.623,0.493,1.04,0.493c0.246,0,0.477-0.072,0.687-0.214c0.213-0.145,0.382-0.36,0.507-0.647
				C283.606,473.51,283.669,473.163,283.669,472.757"/>
			<path id="XMLID_11923_" style="fill:#FFFFFF;" d="M286.663,469.064c-0.208,0-0.384-0.066-0.53-0.192
				c-0.149-0.128-0.223-0.306-0.223-0.538c0-0.211,0.075-0.385,0.228-0.522c0.15-0.135,0.325-0.204,0.525-0.204
				c0.195,0,0.365,0.061,0.513,0.183c0.149,0.125,0.224,0.306,0.224,0.543c0,0.229-0.073,0.408-0.217,0.537
				C287.037,468.999,286.865,469.064,286.663,469.064 M287.4,470.602v4.306c0,0.296-0.071,0.521-0.212,0.673
				c-0.143,0.155-0.322,0.23-0.54,0.23c-0.219,0-0.393-0.077-0.533-0.233c-0.134-0.159-0.204-0.382-0.204-0.669v-4.263
				c0-0.293,0.07-0.513,0.204-0.663c0.14-0.152,0.314-0.225,0.533-0.225c0.219,0,0.397,0.073,0.54,0.225
				C287.329,470.131,287.4,470.339,287.4,470.602"/>
			<path id="XMLID_11921_" style="fill:#FFFFFF;" d="M292.198,475.13l-1.311-2.161l-0.808,0.762v1.185
				c0,0.286-0.076,0.506-0.228,0.66c-0.147,0.156-0.325,0.233-0.52,0.233c-0.229,0-0.41-0.075-0.54-0.23
				c-0.13-0.151-0.197-0.377-0.197-0.674v-6.35c0-0.329,0.065-0.58,0.19-0.754c0.128-0.175,0.313-0.259,0.547-0.259
				c0.229,0,0.409,0.078,0.545,0.236c0.134,0.155,0.203,0.387,0.203,0.69v3.612l1.674-1.758c0.208-0.216,0.363-0.368,0.475-0.447
				c0.109-0.08,0.241-0.119,0.396-0.119c0.187,0,0.341,0.059,0.468,0.177c0.121,0.118,0.184,0.267,0.184,0.444
				c0,0.217-0.203,0.51-0.605,0.873l-0.79,0.725l1.526,2.401c0.111,0.18,0.194,0.312,0.243,0.405
				c0.048,0.091,0.074,0.183,0.074,0.265c0,0.237-0.066,0.421-0.195,0.56c-0.129,0.136-0.301,0.203-0.508,0.203
				c-0.182,0-0.324-0.047-0.421-0.147C292.5,475.564,292.364,475.385,292.198,475.13"/>
			<path id="XMLID_11920_" style="fill:#FFFFFF;" d="M295.432,475.81c-0.225,0-0.418-0.072-0.582-0.219
				c-0.163-0.143-0.246-0.348-0.246-0.611c0-0.221,0.079-0.413,0.235-0.571c0.158-0.16,0.349-0.241,0.578-0.241
				c0.228,0,0.422,0.08,0.587,0.237c0.16,0.158,0.242,0.351,0.242,0.575c0,0.259-0.082,0.464-0.242,0.608
				C295.84,475.737,295.65,475.81,295.432,475.81"/>
			<path id="XMLID_11919_" style="fill:#FFFFFF;" d="M302.835,473.967c0,0.184-0.055,0.383-0.167,0.594
				c-0.11,0.212-0.28,0.412-0.508,0.602c-0.227,0.191-0.512,0.346-0.858,0.461c-0.345,0.116-0.735,0.176-1.165,0.176
				c-0.922,0-1.641-0.27-2.157-0.804c-0.514-0.537-0.772-1.257-0.772-2.158c0-0.613,0.117-1.151,0.355-1.621
				c0.234-0.467,0.576-0.831,1.022-1.087c0.447-0.257,0.985-0.384,1.603-0.384c0.387,0,0.739,0.056,1.063,0.169
				c0.322,0.112,0.592,0.259,0.818,0.436c0.222,0.18,0.393,0.369,0.511,0.569c0.119,0.202,0.177,0.391,0.177,0.567
				c0,0.176-0.065,0.328-0.197,0.452c-0.135,0.123-0.296,0.186-0.481,0.186c-0.126,0-0.228-0.033-0.311-0.095
				c-0.082-0.064-0.175-0.166-0.275-0.311c-0.182-0.275-0.371-0.483-0.572-0.619c-0.197-0.139-0.448-0.208-0.754-0.208
				c-0.437,0-0.794,0.171-1.064,0.515c-0.268,0.342-0.404,0.815-0.404,1.409c0,0.28,0.036,0.539,0.105,0.773
				c0.067,0.234,0.167,0.434,0.299,0.599c0.132,0.165,0.289,0.29,0.474,0.376c0.186,0.088,0.391,0.129,0.61,0.129
				c0.299,0,0.555-0.069,0.767-0.207c0.216-0.139,0.403-0.349,0.566-0.633c0.091-0.167,0.188-0.297,0.292-0.392
				c0.105-0.094,0.235-0.143,0.388-0.143c0.182,0,0.333,0.071,0.451,0.208C302.774,473.664,302.835,473.812,302.835,473.967"/>
			<path id="XMLID_11916_" style="fill:#FFFFFF;" d="M309.258,472.785c0,0.442-0.07,0.852-0.204,1.228
				c-0.142,0.374-0.34,0.696-0.603,0.963c-0.261,0.269-0.575,0.475-0.936,0.62c-0.367,0.142-0.775,0.215-1.228,0.215
				c-0.451,0-0.857-0.073-1.217-0.22c-0.358-0.143-0.672-0.353-0.933-0.621c-0.265-0.274-0.464-0.594-0.604-0.962
				c-0.132-0.369-0.201-0.777-0.201-1.223c0-0.451,0.071-0.864,0.206-1.239c0.139-0.375,0.338-0.696,0.596-0.96
				c0.259-0.265,0.57-0.469,0.936-0.614c0.369-0.143,0.775-0.215,1.217-0.215c0.45,0,0.86,0.072,1.228,0.219
				c0.366,0.144,0.679,0.353,0.943,0.619c0.263,0.272,0.461,0.591,0.597,0.96C309.189,471.929,309.258,472.336,309.258,472.785
				 M307.764,472.785c0-0.608-0.135-1.079-0.401-1.417c-0.266-0.342-0.625-0.509-1.076-0.509c-0.292,0-0.548,0.076-0.771,0.226
				c-0.222,0.15-0.391,0.373-0.511,0.668c-0.12,0.295-0.181,0.639-0.181,1.032c0,0.39,0.059,0.728,0.178,1.018
				c0.119,0.293,0.288,0.515,0.508,0.669c0.221,0.153,0.479,0.232,0.776,0.232c0.45,0,0.81-0.17,1.076-0.512
				C307.629,473.853,307.764,473.382,307.764,472.785"/>
			<path id="XMLID_11914_" style="fill:#FFFFFF;" d="M314.935,472.894v1.978c0,0.314-0.069,0.546-0.212,0.704
				c-0.144,0.156-0.328,0.234-0.561,0.234c-0.225,0-0.41-0.078-0.546-0.234c-0.142-0.159-0.214-0.391-0.214-0.704v-2.371
				c0-0.375-0.012-0.667-0.036-0.875c-0.026-0.203-0.096-0.376-0.208-0.507c-0.113-0.135-0.292-0.202-0.534-0.202
				c-0.488,0-0.808,0.167-0.962,0.506c-0.154,0.331-0.233,0.811-0.233,1.439v2.01c0,0.309-0.07,0.543-0.207,0.702
				c-0.143,0.157-0.326,0.237-0.554,0.237c-0.227,0-0.411-0.08-0.555-0.237c-0.145-0.159-0.216-0.393-0.216-0.702v-4.258
				c0-0.281,0.064-0.494,0.192-0.638c0.132-0.147,0.302-0.219,0.511-0.219c0.204,0,0.374,0.071,0.512,0.204
				c0.136,0.137,0.203,0.325,0.203,0.565v0.141c0.26-0.307,0.536-0.535,0.829-0.678c0.297-0.149,0.621-0.221,0.983-0.221
				c0.374,0,0.695,0.075,0.963,0.224c0.27,0.15,0.49,0.376,0.666,0.675c0.252-0.303,0.522-0.53,0.809-0.678
				c0.287-0.147,0.604-0.221,0.954-0.221c0.405,0,0.758,0.082,1.053,0.24c0.293,0.16,0.512,0.39,0.659,0.686
				c0.127,0.271,0.189,0.694,0.189,1.272v2.906c0,0.314-0.07,0.546-0.211,0.704c-0.141,0.156-0.33,0.234-0.562,0.234
				c-0.227,0-0.41-0.08-0.554-0.237c-0.143-0.159-0.216-0.393-0.216-0.702v-2.503c0-0.321-0.014-0.576-0.04-0.768
				c-0.027-0.193-0.101-0.356-0.22-0.486c-0.122-0.131-0.304-0.197-0.547-0.197c-0.196,0-0.382,0.061-0.559,0.177
				c-0.176,0.114-0.314,0.273-0.414,0.466C314.992,471.812,314.935,472.257,314.935,472.894"/>
		</g>
		<g id="XMLID_11897_">
			<path id="XMLID_11912_" style="fill:#FFFFFF;" d="M245.658,472.424c-0.001-0.003-0.001-0.006-0.001-0.01
				C245.657,472.419,245.657,472.422,245.658,472.424z"/>
			<path id="XMLID_11911_" style="fill:#FFFFFF;" d="M245.733,472.9c0.001,0,0.001,0,0.002,0c-0.029-0.136-0.051-0.27-0.068-0.403
				C245.684,472.631,245.706,472.766,245.733,472.9z"/>
			<path id="XMLID_11910_" style="fill:#FFFFFF;" d="M246.226,474.281c-0.003-0.006-0.006-0.012-0.01-0.019
				C246.22,474.269,246.223,474.276,246.226,474.281z"/>
			<path id="XMLID_11909_" style="fill:#FFFFFF;" d="M246.179,474.189c-0.013-0.025-0.025-0.052-0.037-0.077
				C246.154,474.139,246.166,474.164,246.179,474.189z"/>
			<path id="XMLID_11907_" style="fill:#FFFFFF;" d="M245.872,473.432c0.073,0.23,0.161,0.452,0.262,0.665
				c-0.103-0.217-0.189-0.44-0.26-0.665C245.873,473.432,245.872,473.432,245.872,473.432z"/>
			<path id="XMLID_11906_" style="fill:#FFFFFF;" d="M251.419,466.721c0.288,0,0.5,0.023,0.743,0.064l0.069-0.438
				c0,0-0.672-0.207-1.556-0.134l-0.07-0.238c0.275-0.058,0.481-0.302,0.481-0.594c0-0.334-0.272-0.605-0.607-0.605
				c-0.335,0-0.606,0.271-0.606,0.605c0,0.292,0.206,0.536,0.48,0.594l0.077,0.266c-0.938,0.129-1.685,0.495-1.685,0.495
				l0.132,0.405c0.568-0.189,1.06-0.304,1.506-0.352C250.822,466.742,251.151,466.721,251.419,466.721z"/>
			<path id="XMLID_11905_" style="fill:#FFFFFF;" d="M246.215,468.936l0.003-0.004c0.022-0.029,0.043-0.056,0.065-0.082l-0.18-0.129
				l-0.28-0.204c-0.016,0.022-0.456,0.427-0.804,1.175c-0.015-0.023-0.032-0.047-0.051-0.068c-0.104-0.114-0.25-0.172-0.435-0.169
				c-0.002,0-0.005,0-0.008,0c-0.115,0-0.193-0.038-0.245-0.085c0.051-0.065,0.082-0.147,0.082-0.237
				c0-0.211-0.172-0.384-0.384-0.384c-0.212,0-0.384,0.173-0.384,0.384c0,0.212,0.172,0.384,0.384,0.384
				c0.033,0,0.065-0.005,0.096-0.012c0.094,0.105,0.244,0.196,0.464,0.192c0.113-0.001,0.196,0.028,0.251,0.089
				c0.064,0.069,0.085,0.17,0.092,0.245c-0.001,0.001-0.001,0.003-0.002,0.003c-0.25,0.683-0.178,1.532-0.178,1.532l0.607,0.024
				c0.012-0.309,0.057-0.851,0.213-1.28C245.821,469.478,246.199,468.958,246.215,468.936z"/>
			<path id="XMLID_11904_" style="fill:#FFFFFF;" d="M256.699,467.229c-0.211,0-0.384,0.171-0.384,0.384
				c0,0.033,0.005,0.065,0.014,0.095c-0.105,0.095-0.197,0.245-0.193,0.465c0.002,0.113-0.027,0.195-0.089,0.251
				c-0.049,0.043-0.11,0.066-0.17,0.081c-0.452-0.633-1.008-1.019-1.008-1.019l-0.436,0.467c0.329,0.299,0.665,0.674,0.992,1.142
				c0.226,0.323,0.459,0.74,0.652,1.156l0.588-0.279c0,0-0.268-0.663-0.646-1.258c0.066-0.023,0.132-0.059,0.19-0.11
				c0.115-0.104,0.171-0.251,0.168-0.435c-0.001-0.119,0.038-0.2,0.085-0.253c0.065,0.05,0.147,0.082,0.236,0.082
				c0.213,0,0.385-0.172,0.385-0.384C257.083,467.4,256.912,467.229,256.699,467.229z"/>
			<path id="XMLID_11903_" style="fill:#FFFFFF;" d="M255.174,472.51c-0.809,0.394-2.14,0.915-3.892,1.159
				c-0.688,0.095-1.354,0.131-1.968,0.131c-0.798,0-1.503-0.059-2.045-0.128c-0.618-0.078-1.1-0.173-1.396-0.24
				c0.071,0.225,0.157,0.448,0.26,0.665c0.002,0.006,0.004,0.012,0.007,0.016c0.012,0.025,0.025,0.052,0.037,0.077
				c0.012,0.025,0.025,0.05,0.037,0.073c0.004,0.007,0.007,0.013,0.01,0.019c0.174,0.327,0.383,0.628,0.62,0.889
				c0.826,0.904,1.668,1.047,1.676,1.048l0.013,0.002l0.012,0.004c0.008,0.003,0.754,0.244,1.889,0.244
				c1.117,0,2.212-0.225,3.257-0.67c0.773-0.396,1.505-0.996,1.868-1.532c0.28-0.415,0.483-0.857,0.603-1.317
				c0.064-0.244,0.114-0.636,0.085-1.047C256.021,472.055,255.661,472.273,255.174,472.51z"/>
			<path id="XMLID_11898_" style="fill:#FFFFFF;" d="M246.474,469.128c-0.024,0.034-0.374,0.531-0.652,1.293
				c-0.208,0.571-0.198,1.402-0.198,1.412v0.002c0,0.195,0.011,0.388,0.033,0.58c0,0.004,0,0.007,0.001,0.01
				c0.002,0.025,0.006,0.048,0.009,0.073c0.017,0.133,0.04,0.267,0.068,0.403c0.402,0.102,2.8,0.662,5.48,0.288
				c1.68-0.234,2.955-0.73,3.73-1.106c0.643-0.312,1.057-0.595,1.217-0.711c-0.159-0.59-0.598-1.516-1-2.093
				c-1.151-1.645-2.392-2.066-3.029-2.171c-0.243-0.04-0.438-0.063-0.714-0.063c-0.257,0-0.575,0.021-1.001,0.065
				c-0.426,0.044-0.902,0.156-1.453,0.342c-0.773,0.259-1.473,0.665-2.024,1.175l-0.019,0.017
				C246.841,468.72,246.67,468.878,246.474,469.128z M253.516,468.745c0.551,0,1,0.448,1,1.001s-0.449,1.001-1,1.001
				c-0.552,0-1-0.449-1-1.001S252.964,468.745,253.516,468.745z M248.786,468.705c0.893,0,1.617,0.724,1.617,1.617
				c0,0.893-0.723,1.615-1.617,1.615c-0.892,0-1.616-0.722-1.616-1.615C247.17,469.429,247.894,468.705,248.786,468.705z"/>
		</g>
	</g>
</g>
</svg>
